<svg width="418" height="418" viewBox="0 0 418 418" fill="none" xmlns="http://www.w3.org/2000/svg">
<circle cx="209" cy="209" r="209" fill="#101010"/>
<path d="M51.4526 219.212H77.9925V227.584H41V173H51.4526V219.212Z" fill="#00C0AA"/>
<path d="M102.96 228.897C87.6891 228.897 81.1562 218.801 81.1562 206.981C81.1562 195.326 87.6891 185.23 102.96 185.23C118.23 185.23 124.845 195.408 124.845 206.981C124.845 218.719 118.23 228.897 102.96 228.897ZM91.2822 207.064C91.2822 217.077 94.8753 220.853 102.96 220.853C111.044 220.853 114.637 217.077 114.637 207.064C114.637 197.05 111.044 193.274 102.96 193.274C94.8753 193.274 91.2822 197.05 91.2822 207.064Z" fill="#00C0AA"/>
<path d="M152.562 228.897C137.292 228.897 130.759 218.801 130.759 206.981C130.759 195.326 137.292 185.23 152.562 185.23C167.833 185.23 174.448 195.408 174.448 206.981C174.448 218.719 167.833 228.897 152.562 228.897ZM140.885 207.064C140.885 217.077 144.478 220.853 152.562 220.853C160.647 220.853 164.24 217.077 164.24 207.064C164.24 197.05 160.647 193.274 152.562 193.274C144.478 193.274 140.885 197.05 140.885 207.064Z" fill="#00C0AA"/>
<path d="M234.505 185.23C244.549 185.23 249.122 191.468 249.122 202.221V227.584H238.996V203.37C238.996 196.475 236.138 193.602 230.993 193.602C224.134 193.602 220.541 198.199 220.541 209.608V227.584H210.578V203.37C210.578 196.475 207.72 193.602 202.575 193.602C195.879 193.602 192.204 198.199 192.204 209.608V227.584H182.078V186.543H192.204V194.751C194.654 189.17 199.064 185.23 206.413 185.23C213.763 185.23 218.091 188.842 219.806 195.326C222.174 189.416 226.665 185.23 234.505 185.23Z" fill="#00C0AA"/>
<path d="M277.68 221.674C283.968 221.674 286.989 218.883 288.133 215.19H297.687C296.789 221.346 291.889 228.897 277.353 228.897C262.164 228.897 256.121 218.801 256.121 206.981C256.121 194.998 262.818 185.23 277.353 185.23C291.562 185.23 297.85 194.916 297.85 206.571C297.85 207.72 297.769 208.787 297.605 209.772H265.921C266.656 218.883 271.229 221.674 277.68 221.674ZM277.517 192.371C271.147 192.371 267.064 194.998 266.084 203.042H288.133C287.724 195.818 284.131 192.371 277.517 192.371Z" fill="#00C0AA"/>
<path d="M328.645 185.887H330.605V195.736H327.583C318.029 195.736 315.334 201.482 315.334 211.66V227.584H305.208V186.543H315.089V196.065C317.212 189.991 321.377 185.887 328.645 185.887Z" fill="#00C0AA"/>
<path d="M368.282 186.543H378L362.239 230.046C358.973 239.403 356.196 244 345.336 244H336.679V235.874H350.644L353.91 227.173H348.929L334.23 186.543H344.601L354.645 214.04L356.523 219.868L358.32 214.04L368.282 186.543Z" fill="#00C0AA"/>
<path d="M156.975 290.772H178.123V299H146.571V253.78H156.975V290.772ZM218.32 299L215.056 289.752H194.792L191.528 299H181.124L197.036 253.78H212.812L228.724 299H218.32ZM197.58 281.796H212.268L204.924 260.92L197.58 281.796ZM262.742 275.676C268.386 276.56 272.67 279.484 272.67 286.692C272.67 294.308 267.706 299 258.05 299H233.298V253.78H258.526C268.182 253.78 272.058 258.812 272.058 264.932C272.058 271.596 267.91 274.588 262.742 275.676ZM255.466 261.6H243.634V272.412H255.126C259.614 272.412 261.246 270.236 261.246 266.972C261.246 263.504 259.75 261.6 255.466 261.6ZM255.738 291.112C260.362 291.112 261.926 288.596 261.926 285.264C261.926 281.66 260.09 279.348 255.126 279.348H243.634V291.112H255.738Z" fill="#00C0AA"/>
</svg>
