<svg width="275" height="545" viewBox="0 0 275 545" fill="none" xmlns="http://www.w3.org/2000/svg">
<g opacity="0.25">
<path d="M173.824 289.169L203.906 272.79L233.987 289.169L233.998 289.175L263.747 305.978L264.021 339.099V339.125L263.747 372.246L233.998 389.049L233.976 389.061L203.906 405.434L173.835 389.061L173.824 389.055L144.064 372.246L143.79 339.112L144.064 305.978L173.824 289.169Z" stroke="#04564D" stroke-width="3.14493"/>
<path d="M188.21 315.671L171.882 308.277V362.909L188.21 369.995L204.333 362.909L218.71 369.995L234.73 362.909V308.277L218.71 315.671L204.333 308.277L188.21 315.671Z" fill="#00C0AA"/>
<path fill-rule="evenodd" clip-rule="evenodd" d="M171.169 307.155C171.551 306.909 172.03 306.874 172.444 307.061L188.217 314.204L203.787 307.063C204.159 306.893 204.59 306.902 204.954 307.09L218.752 314.186L234.181 307.065C234.594 306.874 235.076 306.907 235.46 307.152C235.843 307.398 236.075 307.822 236.075 308.277V362.909C236.075 363.437 235.763 363.916 235.28 364.13L219.26 371.215C218.899 371.375 218.485 371.367 218.13 371.192L204.311 364.381L188.758 371.217C188.418 371.366 188.03 371.367 187.689 371.219L171.362 364.133C170.874 363.922 170.558 363.441 170.558 362.909V308.277C170.558 307.823 170.788 307.401 171.169 307.155ZM173.228 310.347V362.033L188.218 368.538L203.806 361.687C204.167 361.528 204.58 361.537 204.934 361.711L218.751 368.521L233.405 362.039V310.363L219.28 316.883C218.907 317.055 218.475 317.046 218.11 316.858L204.31 309.761L188.777 316.884C188.426 317.045 188.022 317.046 187.67 316.887L173.228 310.347Z" fill="#04564D"/>
<path d="M228.469 323.803L230.983 320.292L233.023 321.526L230.604 324.989L233.023 326.555L230.983 329.354L228.469 327.836L226.097 331.251L224.104 329.97L226.619 326.555L224.104 324.989L226.097 322.237L228.469 323.803Z" fill="#04564D"/>
<path fill-rule="evenodd" clip-rule="evenodd" d="M203.028 363.049V308.623H205.698V363.049H203.028ZM186.906 368.595V315.709H189.576V368.595H186.906ZM217.405 368.595V315.709H220.075V368.595H217.405Z" fill="#04564D"/>
<path d="M171.92 341.536L188.094 349.173L194.159 345.804V333.673L203.37 328.282L212.804 333.673V345.804L217.746 349.173L229.203 341.536V327.159" stroke="#04564D" stroke-width="2.24638" stroke-dasharray="2.25 2.25"/>
<path d="M41.8244 289.169L71.9056 272.79L101.987 289.169L101.998 289.175L131.747 305.978L132.021 339.099V339.125L131.747 372.246L101.998 389.049L101.976 389.061L71.9056 405.434L41.835 389.061L41.8243 389.055L12.0644 372.246L11.7902 339.112L12.0644 305.978L41.8244 289.169Z" stroke="#04564D" stroke-width="3.14493"/>
<circle cx="86.9533" cy="333.988" r="9.15338" fill="#00AB97"/>
<path d="M87.2242 323.81C85.263 323.81 83.3458 324.391 81.7151 325.481C80.0843 326.571 78.8134 328.119 78.0628 329.931C77.3123 331.743 77.1159 333.737 77.4985 335.661C77.8811 337.584 78.8256 339.351 80.2124 340.738C81.5992 342.125 83.3661 343.069 85.2897 343.452C87.2132 343.834 89.207 343.638 91.019 342.887C92.831 342.137 94.3797 340.866 95.4693 339.235C96.5589 337.605 97.1405 335.687 97.1405 333.726C97.1374 331.097 96.0917 328.577 94.2327 326.718C92.3737 324.859 89.8532 323.813 87.2242 323.81V323.81ZM87.2242 341.439C85.6988 341.439 84.2077 340.986 82.9393 340.139C81.671 339.291 80.6824 338.087 80.0987 336.678C79.5149 335.268 79.3622 333.717 79.6598 332.221C79.9574 330.725 80.6919 329.351 81.7706 328.272C82.8492 327.194 84.2235 326.459 85.7196 326.162C87.2157 325.864 88.7664 326.017 90.1757 326.601C91.585 327.184 92.7896 328.173 93.637 329.441C94.4845 330.709 94.9369 332.201 94.9369 333.726C94.9346 335.771 94.1212 337.731 92.6753 339.177C91.2294 340.623 89.269 341.436 87.2242 341.439V341.439Z" fill="#04564D"/>
<circle cx="53.6904" cy="350.26" r="9.15338" fill="#00AB97"/>
<path d="M104.091 329.915L101.023 328.9C100.839 328.375 100.626 327.862 100.383 327.361L101.678 324.635C101.762 324.458 101.798 324.261 101.781 324.066C101.763 323.871 101.695 323.683 101.581 323.523C100.435 321.912 99.0274 320.504 97.4158 319.358C97.2561 319.244 97.0688 319.175 96.8733 319.158C96.6779 319.141 96.4814 319.177 96.3043 319.261L93.5778 320.556C93.0777 320.314 92.5641 320.1 92.0397 319.916L91.024 316.849C90.9512 316.629 90.811 316.437 90.6232 316.302C90.4354 316.166 90.2097 316.093 89.9781 316.093H84.4562C84.2246 316.093 83.9988 316.166 83.8111 316.302C83.6233 316.437 83.4831 316.629 83.4103 316.849L82.3784 319.965L80.9027 320.577L78.1305 319.261C77.9533 319.177 77.7569 319.142 77.5615 319.159C77.3661 319.176 77.1789 319.245 77.019 319.358C75.4071 320.504 73.999 321.912 72.8533 323.523C72.7397 323.683 72.6708 323.871 72.6537 324.066C72.6366 324.261 72.6719 324.458 72.7559 324.635L74.0729 327.408L73.4607 328.883L70.3436 329.915C70.1237 329.988 69.9324 330.128 69.7968 330.316C69.6612 330.504 69.5882 330.73 69.5883 330.961V336.483C69.5882 336.714 69.6612 336.94 69.7968 337.128C69.9324 337.315 70.1237 337.456 70.3436 337.528L73.4602 338.561L74.0729 340.037L72.7559 342.809C72.6719 342.986 72.6366 343.182 72.6537 343.378C72.6708 343.573 72.7397 343.76 72.8533 343.92C73.9988 345.532 75.4068 346.94 77.0184 348.085C77.1783 348.199 77.3655 348.268 77.5607 348.285C77.756 348.302 77.9523 348.267 78.1294 348.183L80.9027 346.866L82.3784 347.479L83.4103 350.596C83.483 350.816 83.6233 351.007 83.8111 351.142C83.9988 351.278 84.2245 351.351 84.4562 351.351H89.9781C90.2097 351.351 90.4354 351.278 90.6232 351.142C90.8109 351.007 90.9512 350.816 91.0239 350.596L92.0397 347.528C92.5641 347.344 93.0776 347.131 93.5778 346.888L96.3043 348.183C96.4814 348.268 96.6779 348.304 96.8734 348.286C97.0689 348.269 97.2562 348.2 97.4158 348.086C99.0275 346.94 100.435 345.532 101.581 343.92C101.695 343.76 101.763 343.573 101.781 343.378C101.798 343.182 101.762 342.986 101.678 342.809L100.383 340.083C100.626 339.583 100.839 339.069 101.023 338.544L104.091 337.528C104.311 337.456 104.502 337.315 104.637 337.128C104.773 336.94 104.846 336.714 104.846 336.483V330.961C104.846 330.73 104.773 330.504 104.637 330.316C104.502 330.128 104.311 329.988 104.091 329.915V329.915ZM102.642 335.687L99.8029 336.627C99.6357 336.683 99.4842 336.777 99.3611 336.903C99.238 337.029 99.1469 337.183 99.0954 337.351C98.8629 338.111 98.5575 338.847 98.1835 339.549C98.1025 339.7 98.0581 339.869 98.0541 340.041C98.0501 340.213 98.0865 340.384 98.1604 340.54L99.4037 343.157C98.6059 344.186 97.6813 345.111 96.6519 345.909L94.0345 344.665C93.8792 344.591 93.7085 344.554 93.5363 344.559C93.3641 344.563 93.1953 344.607 93.0436 344.689C92.3422 345.063 91.6064 345.368 90.8464 345.6C90.678 345.652 90.5244 345.743 90.3984 345.866C90.2724 345.989 90.1777 346.141 90.1223 346.308L89.1824 349.147H85.2518L84.312 346.308C84.2622 346.158 84.1808 346.02 84.0732 345.905C83.9656 345.789 83.8344 345.698 83.6885 345.637L81.2949 344.643C81.1527 344.584 80.9994 344.555 80.8452 344.559C80.6911 344.563 80.5394 344.599 80.4003 344.665L77.7824 345.908C76.7527 345.111 75.8281 344.186 75.0306 343.157L76.2739 340.54C76.3401 340.4 76.3763 340.249 76.3801 340.094C76.3839 339.94 76.3552 339.787 76.2959 339.644L75.3022 337.251C75.2417 337.105 75.1505 336.974 75.0347 336.866C74.9189 336.758 74.7814 336.677 74.6313 336.627L71.7919 335.687V331.757L74.6314 330.817C74.7814 330.767 74.9189 330.686 75.0347 330.578C75.1504 330.471 75.2417 330.339 75.3023 330.193L76.2959 327.8C76.3552 327.658 76.3839 327.504 76.3801 327.35C76.3763 327.196 76.3401 327.044 76.2739 326.905L75.0306 324.287C75.828 323.257 76.7528 322.333 77.7829 321.536L80.3997 322.778C80.539 322.845 80.6907 322.881 80.8449 322.885C80.9991 322.889 81.1524 322.86 81.2949 322.801L83.6884 321.808C83.8344 321.747 83.9656 321.656 84.0732 321.54C84.1808 321.424 84.2622 321.286 84.3119 321.136L85.2518 318.297H89.1824L90.1222 321.136C90.1777 321.304 90.2724 321.455 90.3984 321.578C90.5244 321.701 90.678 321.792 90.8464 321.844C91.6064 322.076 92.3422 322.382 93.0435 322.756C93.1956 322.836 93.3643 322.88 93.5363 322.884C93.7083 322.888 93.8789 322.852 94.0345 322.779L96.6519 321.536C97.6814 322.333 98.606 323.258 99.4037 324.287L98.1604 326.905C98.0866 327.06 98.0503 327.231 98.0543 327.403C98.0584 327.575 98.1026 327.744 98.1835 327.896C98.5575 328.597 98.8629 329.333 99.0954 330.093C99.147 330.261 99.2381 330.415 99.3612 330.541C99.4843 330.667 99.6357 330.762 99.8029 330.817L102.642 331.757V335.687Z" fill="#04564D"/>
<path d="M54.1316 360.162C56.0928 360.162 58.01 359.58 59.6407 358.491C61.2715 357.401 62.5424 355.852 63.293 354.04C64.0435 352.228 64.2399 350.235 63.8573 348.311C63.4746 346.387 62.5302 344.621 61.1434 343.234C59.7566 341.847 57.9897 340.903 56.0661 340.52C54.1426 340.137 52.1487 340.334 50.3368 341.084C48.5248 341.835 46.9761 343.106 45.8865 344.736C44.7969 346.367 44.2153 348.284 44.2153 350.246C44.2184 352.875 45.2641 355.395 47.1231 357.254C48.9821 359.113 51.5026 360.159 54.1316 360.162ZM54.1316 342.533C55.657 342.533 57.1481 342.985 58.4165 343.833C59.6848 344.68 60.6734 345.885 61.2571 347.294C61.8409 348.703 61.9936 350.254 61.696 351.75C61.3984 353.246 60.6639 354.621 59.5852 355.699C58.5066 356.778 57.1323 357.512 55.6362 357.81C54.1401 358.108 52.5894 357.955 51.1801 357.371C49.7708 356.787 48.5662 355.799 47.7188 354.53C46.8713 353.262 46.4189 351.771 46.4189 350.246C46.4212 348.201 47.2346 346.24 48.6805 344.794C50.1264 343.349 52.0868 342.535 54.1316 342.533Z" fill="#04564D"/>
<path d="M37.2509 354.061L40.3675 355.093L40.9803 356.569L39.6633 359.341C39.5792 359.518 39.5439 359.715 39.5611 359.91C39.5782 360.105 39.6471 360.293 39.7607 360.453C40.9062 362.064 42.3141 363.472 43.9258 364.618C44.0856 364.731 44.2728 364.8 44.4681 364.817C44.6633 364.834 44.8596 364.799 45.0367 364.715L47.81 363.399L49.2857 364.011L50.3176 367.128C50.3904 367.348 50.5306 367.539 50.7184 367.675C50.9062 367.81 51.1319 367.883 51.3635 367.883H56.8854C57.117 367.883 57.3428 367.81 57.5305 367.675C57.7183 367.539 57.8585 367.348 57.9313 367.128L58.947 364.06C59.4714 363.876 59.985 363.663 60.4851 363.421L63.2117 364.716C63.3887 364.8 63.5852 364.836 63.7807 364.819C63.9762 364.802 64.1636 364.732 64.3232 364.618C65.9349 363.472 67.3428 362.064 68.4883 360.453C68.6019 360.293 68.6708 360.105 68.6879 359.91C68.705 359.715 68.6697 359.518 68.5857 359.341L67.2907 356.615C67.533 356.115 67.7466 355.601 67.9304 355.076L70.998 354.061C71.2179 353.988 71.4092 353.848 71.5448 353.66C71.6804 353.472 71.7534 353.246 71.7533 353.015V347.493C71.7534 347.262 71.6804 347.036 71.5448 346.848C71.4092 346.661 71.2179 346.52 70.998 346.448L67.9304 345.432C67.7465 344.907 67.5329 344.394 67.2907 343.894L68.5857 341.167C68.6697 340.99 68.705 340.794 68.6879 340.598C68.6708 340.403 68.6019 340.216 68.4883 340.056C67.3426 338.444 65.9347 337.036 64.3232 335.891C64.1635 335.776 63.9762 335.707 63.7807 335.69C63.5852 335.673 63.3887 335.709 63.2117 335.793L60.4852 337.088C59.985 336.846 59.4715 336.632 58.9471 336.448L57.9314 333.381C57.8586 333.161 57.7183 332.97 57.5306 332.834C57.3428 332.698 57.1171 332.625 56.8854 332.625H51.3635C51.1319 332.625 50.9062 332.698 50.7184 332.834C50.5307 332.97 50.3904 333.161 50.3177 333.381L49.2858 336.497L47.8101 337.11L45.0378 335.793C44.8606 335.709 44.6642 335.674 44.4689 335.691C44.2735 335.708 44.0863 335.777 43.9263 335.891C42.3145 337.036 40.9064 338.444 39.7607 340.056C39.6471 340.216 39.5782 340.403 39.5611 340.598C39.5439 340.794 39.5792 340.99 39.6633 341.167L40.9803 343.94L40.3681 345.416L37.2509 346.448C37.0311 346.52 36.8397 346.661 36.7041 346.848C36.5685 347.036 36.4956 347.262 36.4956 347.493V353.015C36.4956 353.246 36.5685 353.472 36.7041 353.66C36.8397 353.848 37.0311 353.988 37.2509 354.061ZM38.6992 348.289L41.5387 347.349C41.6887 347.299 41.8263 347.218 41.942 347.11C42.0578 347.003 42.149 346.872 42.2096 346.726L43.2033 344.332C43.2626 344.19 43.2913 344.036 43.2875 343.882C43.2837 343.728 43.2475 343.576 43.1812 343.437L41.9379 340.82C42.7354 339.79 43.6602 338.865 44.6903 338.068L47.3071 339.311C47.4465 339.377 47.5981 339.413 47.7523 339.416C47.9064 339.42 48.0597 339.392 48.2023 339.333L50.5958 338.34C50.7418 338.279 50.873 338.188 50.9806 338.072C51.0882 337.956 51.1696 337.819 51.2193 337.669L52.1592 334.829H56.0898L57.0296 337.669C57.0851 337.836 57.1797 337.987 57.3057 338.11C57.4317 338.233 57.5853 338.325 57.7537 338.376C58.5138 338.609 59.2496 338.914 59.9509 339.288C60.1028 339.369 60.2715 339.413 60.4436 339.417C60.6157 339.421 60.7863 339.385 60.9419 339.311L63.5592 338.068C64.5888 338.865 65.5134 339.79 66.311 340.82L65.0677 343.437C64.994 343.592 64.9577 343.763 64.9617 343.935C64.9657 344.107 65.01 344.276 65.0909 344.428C65.4649 345.129 65.7702 345.865 66.0028 346.625C66.0543 346.793 66.1455 346.947 66.2685 347.073C66.3916 347.199 66.5431 347.294 66.7102 347.349L69.5497 348.289V352.219L66.7102 353.16C66.543 353.215 66.3915 353.31 66.2684 353.436C66.1453 353.562 66.0542 353.715 66.0028 353.884C65.7702 354.644 65.4648 355.379 65.0909 356.081C65.0098 356.233 64.9655 356.401 64.9615 356.574C64.9575 356.746 64.9938 356.916 65.0677 357.072L66.311 359.689C65.5132 360.719 64.5886 361.643 63.5592 362.441L60.9419 361.198C60.7865 361.123 60.6158 361.087 60.4436 361.091C60.2715 361.095 60.1027 361.139 59.9509 361.221C59.2496 361.595 58.5138 361.9 57.7538 362.133C57.5854 362.184 57.4317 362.275 57.3058 362.398C57.1798 362.521 57.0851 362.673 57.0296 362.84L56.0898 365.68H52.1592L51.2194 362.84C51.1696 362.69 51.0882 362.553 50.9806 362.437C50.873 362.321 50.7418 362.23 50.5958 362.169L48.2023 361.176C48.06 361.116 47.9067 361.088 47.7526 361.091C47.5985 361.095 47.4468 361.131 47.3076 361.198L44.6897 362.44C43.6601 361.643 42.7355 360.719 41.9379 359.689L43.1812 357.072C43.2475 356.932 43.2837 356.781 43.2875 356.627C43.2912 356.472 43.2626 356.319 43.2032 356.177L42.2096 353.783C42.1491 353.637 42.0578 353.506 41.9421 353.398C41.8263 353.291 41.6887 353.209 41.5387 353.16L38.6992 352.219V348.289Z" fill="#04564D"/>
<path d="M59.6814 324.913V330.422H61.885V326.015H68.4959C68.726 326.015 68.9503 325.943 69.1373 325.809C69.3244 325.675 69.4648 325.485 69.5389 325.268C69.613 325.05 69.6171 324.814 69.5505 324.594C69.484 324.374 69.3502 324.18 69.1678 324.04L54.8444 313.022C54.6517 312.873 54.4154 312.793 54.1724 312.793C53.9294 312.793 53.6932 312.873 53.5005 313.022L39.177 324.04C38.9947 324.18 38.8608 324.374 38.7943 324.594C38.7277 324.814 38.7318 325.05 38.8059 325.268C38.88 325.485 39.0205 325.675 39.2075 325.809C39.3946 325.943 39.6189 326.015 39.849 326.015H46.4598V333.727H48.6634V324.913C48.6634 324.621 48.5473 324.34 48.3407 324.134C48.1341 323.927 47.8538 323.811 47.5616 323.811H43.0882L54.1724 315.285L65.2566 323.811H60.7832C60.491 323.811 60.2108 323.927 60.0041 324.134C59.7975 324.34 59.6814 324.621 59.6814 324.913Z" fill="#04564D"/>
<path d="M87.2137 308.674L100.865 319.175L102.209 317.428L87.8856 306.41C87.6929 306.262 87.4567 306.182 87.2137 306.182C86.9706 306.182 86.7344 306.262 86.5417 306.41L72.2183 317.428L73.5622 319.175L87.2137 308.674Z" fill="#04564D"/>
<path d="M46.448 366.772V371.179C46.448 371.471 46.5641 371.751 46.7707 371.958C46.9773 372.164 47.2576 372.281 47.5498 372.281H60.7715C61.0637 372.281 61.3439 372.164 61.5505 371.958C61.7572 371.751 61.8733 371.471 61.8733 371.179V366.729H59.6697V370.077H48.6516V366.772H46.448Z" fill="#04564D"/>
<path d="M79.5028 351.351V371.183C79.5028 371.476 79.6189 371.756 79.8255 371.962C80.0321 372.169 80.3124 372.285 80.6046 372.285H93.8263C94.1185 372.285 94.3987 372.169 94.6054 371.962C94.812 371.756 94.9281 371.476 94.9281 371.183V351.351H92.7245V370.081H81.7064V351.351H79.5028Z" fill="#04564D"/>
<path d="M173.698 18.1687L203.779 1.79043L233.861 18.1688L233.871 18.1746L263.62 34.9781L263.895 68.099V68.125L263.62 101.246L233.871 118.049L233.85 118.061L203.779 134.434L173.709 118.061L173.698 118.055L143.938 101.246L143.664 68.112L143.938 34.9781L173.698 18.1687Z" stroke="#04564D" stroke-width="3.14493"/>
<mask id="path-19-outside-1_3302_1696" maskUnits="userSpaceOnUse" x="170.529" y="35.6278" width="66" height="66" fill="black">
<rect fill="white" x="170.529" y="35.6278" width="66" height="66"/>
<path d="M173.827 94.2517C174.844 95.8958 176.182 97.3176 177.761 98.4317C179.341 99.5458 181.129 100.329 183.019 100.735C184.01 100.955 185.023 101.063 186.039 101.057C188.821 101.05 191.539 100.22 193.851 98.6712L216.371 83.6308C218.787 81.9809 220.671 79.6651 221.795 76.9648C222.919 74.2644 223.235 71.2956 222.703 68.4192L229.378 63.9695C232.6 61.7598 234.845 58.3914 235.644 54.5671C236.443 50.7427 235.734 46.7575 233.667 43.4425C232.652 41.7958 231.315 40.3715 229.735 39.2555C228.156 38.1396 226.366 37.355 224.475 36.9492C222.63 36.5467 220.723 36.522 218.868 36.8767C217.013 37.2314 215.25 37.9581 213.683 39.013L191.123 54.0534C188.707 55.7032 186.823 58.019 185.699 60.7194C184.575 63.4198 184.259 66.3885 184.79 69.2649L178.116 73.7146C174.893 75.9262 172.648 79.2963 171.849 83.1223C171.05 86.9484 171.759 90.9352 173.827 94.2517ZM192.24 55.7547L214.821 40.6539C216.162 39.7465 217.674 39.1207 219.264 38.8144C220.854 38.5081 222.49 38.5277 224.073 38.872C225.696 39.2316 227.23 39.9165 228.581 40.8855C229.933 41.8545 231.074 43.0874 231.935 44.5097C233.739 47.3754 234.362 50.8287 233.673 54.144C232.984 57.4593 231.037 60.3785 228.24 62.2883L205.7 77.3287C205.438 77.5099 205.166 77.671 204.895 77.822L204.613 77.973L204.059 78.2448L203.717 78.3958L203.213 78.5972L202.841 78.728L202.348 78.8891L201.955 78.9898L201.462 79.1106L201.059 79.1811L200.566 79.2616H200.163H199.66H199.257H198.361H197.797C197.687 79.2616 197.576 79.2616 197.465 79.2616C197.354 79.2616 196.972 79.1911 196.73 79.1408H196.569C196.274 79.0804 195.982 79.0099 195.693 78.9294L195.421 78.8388L194.827 78.6475L194.505 78.5166L193.982 78.2952L193.68 78.124L193.156 77.9025L192.814 77.7113L192.552 77.5502L214.901 62.6507L217.287 61.0601L224.516 56.2379C225.736 55.4045 226.588 54.1315 226.892 52.6849C227.196 51.2384 226.929 49.7304 226.146 48.4761C225.764 47.8457 225.257 47.3 224.656 46.8724C224.056 46.4448 223.374 46.1444 222.653 45.9895C221.951 45.8347 221.225 45.8245 220.519 45.9595C219.812 46.0945 219.141 46.3719 218.546 46.7748L186.633 68.0367C186.363 65.6732 186.742 63.2808 187.73 61.1168C188.718 58.9528 190.278 57.099 192.24 55.7547ZM199.64 81.3959L187.831 89.2382C187.459 89.4903 187.039 89.664 186.598 89.7488C186.157 89.8336 185.703 89.8277 185.264 89.7315C184.808 89.6345 184.378 89.445 183.998 89.1749C183.619 88.9048 183.299 88.5597 183.059 88.161C182.542 87.3551 182.358 86.3798 182.545 85.4408C182.733 84.5018 183.278 83.6724 184.066 83.1274L190.7 78.7079C190.763 78.7573 190.83 78.8011 190.901 78.8388L191.415 79.1811L191.928 79.4831C192.109 79.5938 192.291 79.6844 192.472 79.775L192.985 80.0368L193.559 80.2885L194.082 80.4898L194.676 80.6911L195.21 80.8522L195.814 81.0032L196.348 81.114L196.962 81.2146L197.515 81.2851H198.119H198.683H199.609L199.64 81.3959ZM215.133 57.9594C214.982 57.8688 214.821 57.7883 214.66 57.7077L214.126 57.4762L213.643 57.2749L213.099 57.0735L212.606 56.9124L212.042 56.7614L211.539 56.6406L210.965 56.5299L210.462 56.4493C210.271 56.4493 210.079 56.399 209.888 56.3889L209.385 56.3386H208.801H207.854L219.663 48.4661C220.035 48.2145 220.455 48.0411 220.896 47.9563C221.337 47.8715 221.791 47.8771 222.23 47.9728C222.685 48.072 223.115 48.2623 223.494 48.5323C223.872 48.8022 224.193 49.1461 224.435 49.5433C224.952 50.3492 225.136 51.3244 224.949 52.2634C224.761 53.2025 224.216 54.0319 223.428 54.5769L216.794 58.9963L216.623 58.8856L216.15 58.5635L215.677 58.2816L215.133 57.9594ZM201.794 60.3554C202.066 60.1742 202.338 60.0131 202.609 59.8621L202.891 59.7111L203.445 59.4292L203.787 59.2883C203.958 59.2178 204.13 59.1373 204.311 59.0769L204.683 58.946L205.187 58.7849L205.579 58.6843L206.072 58.5735L206.485 58.493L206.979 58.4225H207.391C207.552 58.4225 207.713 58.4225 207.885 58.4225H208.297H208.781H209.163H209.687H210.049L210.623 58.5131L210.935 58.5635C211.207 58.6239 211.479 58.6843 211.75 58.7648H211.801C212.093 58.8453 212.375 58.946 212.656 59.0467L212.928 59.1574C213.123 59.2312 213.314 59.3118 213.502 59.399L213.814 59.54L214.328 59.8118L214.64 59.993L214.911 60.1641L192.593 75.0636L190.207 76.6542L182.978 81.4764C181.758 82.3098 180.906 83.5829 180.602 85.0294C180.298 86.4759 180.565 87.9839 181.347 89.2382C181.734 89.863 182.243 90.4034 182.843 90.8272C183.443 91.251 184.123 91.5494 184.841 91.7047C185.172 91.7713 185.509 91.8083 185.847 91.8154H185.968C186.272 91.8102 186.575 91.7799 186.874 91.7248L187.136 91.6644C187.368 91.6112 187.597 91.544 187.821 91.463L188.082 91.3624C188.38 91.232 188.666 91.0771 188.938 90.8993L220.861 69.6474C221.131 72.011 220.752 74.4033 219.764 76.5673C218.776 78.7314 217.216 80.5851 215.254 81.9294L192.673 97.0302C191.331 97.9355 189.819 98.56 188.229 98.8662C186.639 99.1725 185.004 99.154 183.421 98.8121C181.798 98.4526 180.264 97.7676 178.913 96.7986C177.561 95.8297 176.42 94.5968 175.559 93.1745C173.753 90.3111 173.127 86.8595 173.812 83.5444C174.497 80.2293 176.44 77.3087 179.233 75.3958L201.794 60.3554Z"/>
</mask>
<path d="M173.827 94.2517C174.844 95.8958 176.182 97.3176 177.761 98.4317C179.341 99.5458 181.129 100.329 183.019 100.735C184.01 100.955 185.023 101.063 186.039 101.057C188.821 101.05 191.539 100.22 193.851 98.6712L216.371 83.6308C218.787 81.9809 220.671 79.6651 221.795 76.9648C222.919 74.2644 223.235 71.2956 222.703 68.4192L229.378 63.9695C232.6 61.7598 234.845 58.3914 235.644 54.5671C236.443 50.7427 235.734 46.7575 233.667 43.4425C232.652 41.7958 231.315 40.3715 229.735 39.2555C228.156 38.1396 226.366 37.355 224.475 36.9492C222.63 36.5467 220.723 36.522 218.868 36.8767C217.013 37.2314 215.25 37.9581 213.683 39.013L191.123 54.0534C188.707 55.7032 186.823 58.019 185.699 60.7194C184.575 63.4198 184.259 66.3885 184.79 69.2649L178.116 73.7146C174.893 75.9262 172.648 79.2963 171.849 83.1223C171.05 86.9484 171.759 90.9352 173.827 94.2517ZM192.24 55.7547L214.821 40.6539C216.162 39.7465 217.674 39.1207 219.264 38.8144C220.854 38.5081 222.49 38.5277 224.073 38.872C225.696 39.2316 227.23 39.9165 228.581 40.8855C229.933 41.8545 231.074 43.0874 231.935 44.5097C233.739 47.3754 234.362 50.8287 233.673 54.144C232.984 57.4593 231.037 60.3785 228.24 62.2883L205.7 77.3287C205.438 77.5099 205.166 77.671 204.895 77.822L204.613 77.973L204.059 78.2448L203.717 78.3958L203.213 78.5972L202.841 78.728L202.348 78.8891L201.955 78.9898L201.462 79.1106L201.059 79.1811L200.566 79.2616H200.163H199.66H199.257H198.361H197.797C197.687 79.2616 197.576 79.2616 197.465 79.2616C197.354 79.2616 196.972 79.1911 196.73 79.1408H196.569C196.274 79.0804 195.982 79.0099 195.693 78.9294L195.421 78.8388L194.827 78.6475L194.505 78.5166L193.982 78.2952L193.68 78.124L193.156 77.9025L192.814 77.7113L192.552 77.5502L214.901 62.6507L217.287 61.0601L224.516 56.2379C225.736 55.4045 226.588 54.1315 226.892 52.6849C227.196 51.2384 226.929 49.7304 226.146 48.4761C225.764 47.8457 225.257 47.3 224.656 46.8724C224.056 46.4448 223.374 46.1444 222.653 45.9895C221.951 45.8347 221.225 45.8245 220.519 45.9595C219.812 46.0945 219.141 46.3719 218.546 46.7748L186.633 68.0367C186.363 65.6732 186.742 63.2808 187.73 61.1168C188.718 58.9528 190.278 57.099 192.24 55.7547ZM199.64 81.3959L187.831 89.2382C187.459 89.4903 187.039 89.664 186.598 89.7488C186.157 89.8336 185.703 89.8277 185.264 89.7315C184.808 89.6345 184.378 89.445 183.998 89.1749C183.619 88.9048 183.299 88.5597 183.059 88.161C182.542 87.3551 182.358 86.3798 182.545 85.4408C182.733 84.5018 183.278 83.6724 184.066 83.1274L190.7 78.7079C190.763 78.7573 190.83 78.8011 190.901 78.8388L191.415 79.1811L191.928 79.4831C192.109 79.5938 192.291 79.6844 192.472 79.775L192.985 80.0368L193.559 80.2885L194.082 80.4898L194.676 80.6911L195.21 80.8522L195.814 81.0032L196.348 81.114L196.962 81.2146L197.515 81.2851H198.119H198.683H199.609L199.64 81.3959ZM215.133 57.9594C214.982 57.8688 214.821 57.7883 214.66 57.7077L214.126 57.4762L213.643 57.2749L213.099 57.0735L212.606 56.9124L212.042 56.7614L211.539 56.6406L210.965 56.5299L210.462 56.4493C210.271 56.4493 210.079 56.399 209.888 56.3889L209.385 56.3386H208.801H207.854L219.663 48.4661C220.035 48.2145 220.455 48.0411 220.896 47.9563C221.337 47.8715 221.791 47.8771 222.23 47.9728C222.685 48.072 223.115 48.2623 223.494 48.5323C223.872 48.8022 224.193 49.1461 224.435 49.5433C224.952 50.3492 225.136 51.3244 224.949 52.2634C224.761 53.2025 224.216 54.0319 223.428 54.5769L216.794 58.9963L216.623 58.8856L216.15 58.5635L215.677 58.2816L215.133 57.9594ZM201.794 60.3554C202.066 60.1742 202.338 60.0131 202.609 59.8621L202.891 59.7111L203.445 59.4292L203.787 59.2883C203.958 59.2178 204.13 59.1373 204.311 59.0769L204.683 58.946L205.187 58.7849L205.579 58.6843L206.072 58.5735L206.485 58.493L206.979 58.4225H207.391C207.552 58.4225 207.713 58.4225 207.885 58.4225H208.297H208.781H209.163H209.687H210.049L210.623 58.5131L210.935 58.5635C211.207 58.6239 211.479 58.6843 211.75 58.7648H211.801C212.093 58.8453 212.375 58.946 212.656 59.0467L212.928 59.1574C213.123 59.2312 213.314 59.3118 213.502 59.399L213.814 59.54L214.328 59.8118L214.64 59.993L214.911 60.1641L192.593 75.0636L190.207 76.6542L182.978 81.4764C181.758 82.3098 180.906 83.5829 180.602 85.0294C180.298 86.4759 180.565 87.9839 181.347 89.2382C181.734 89.863 182.243 90.4034 182.843 90.8272C183.443 91.251 184.123 91.5494 184.841 91.7047C185.172 91.7713 185.509 91.8083 185.847 91.8154H185.968C186.272 91.8102 186.575 91.7799 186.874 91.7248L187.136 91.6644C187.368 91.6112 187.597 91.544 187.821 91.463L188.082 91.3624C188.38 91.232 188.666 91.0771 188.938 90.8993L220.861 69.6474C221.131 72.011 220.752 74.4033 219.764 76.5673C218.776 78.7314 217.216 80.5851 215.254 81.9294L192.673 97.0302C191.331 97.9355 189.819 98.56 188.229 98.8662C186.639 99.1725 185.004 99.154 183.421 98.8121C181.798 98.4526 180.264 97.7676 178.913 96.7986C177.561 95.8297 176.42 94.5968 175.559 93.1745C173.753 90.3111 173.127 86.8595 173.812 83.5444C174.497 80.2293 176.44 77.3087 179.233 75.3958L201.794 60.3554Z" fill="#04564D"/>
<path d="M173.827 94.2517C174.844 95.8958 176.182 97.3176 177.761 98.4317C179.341 99.5458 181.129 100.329 183.019 100.735C184.01 100.955 185.023 101.063 186.039 101.057C188.821 101.05 191.539 100.22 193.851 98.6712L216.371 83.6308C218.787 81.9809 220.671 79.6651 221.795 76.9648C222.919 74.2644 223.235 71.2956 222.703 68.4192L229.378 63.9695C232.6 61.7598 234.845 58.3914 235.644 54.5671C236.443 50.7427 235.734 46.7575 233.667 43.4425C232.652 41.7958 231.315 40.3715 229.735 39.2555C228.156 38.1396 226.366 37.355 224.475 36.9492C222.63 36.5467 220.723 36.522 218.868 36.8767C217.013 37.2314 215.25 37.9581 213.683 39.013L191.123 54.0534C188.707 55.7032 186.823 58.019 185.699 60.7194C184.575 63.4198 184.259 66.3885 184.79 69.2649L178.116 73.7146C174.893 75.9262 172.648 79.2963 171.849 83.1223C171.05 86.9484 171.759 90.9352 173.827 94.2517ZM192.24 55.7547L214.821 40.6539C216.162 39.7465 217.674 39.1207 219.264 38.8144C220.854 38.5081 222.49 38.5277 224.073 38.872C225.696 39.2316 227.23 39.9165 228.581 40.8855C229.933 41.8545 231.074 43.0874 231.935 44.5097C233.739 47.3754 234.362 50.8287 233.673 54.144C232.984 57.4593 231.037 60.3785 228.24 62.2883L205.7 77.3287C205.438 77.5099 205.166 77.671 204.895 77.822L204.613 77.973L204.059 78.2448L203.717 78.3958L203.213 78.5972L202.841 78.728L202.348 78.8891L201.955 78.9898L201.462 79.1106L201.059 79.1811L200.566 79.2616H200.163H199.66H199.257H198.361H197.797C197.687 79.2616 197.576 79.2616 197.465 79.2616C197.354 79.2616 196.972 79.1911 196.73 79.1408H196.569C196.274 79.0804 195.982 79.0099 195.693 78.9294L195.421 78.8388L194.827 78.6475L194.505 78.5166L193.982 78.2952L193.68 78.124L193.156 77.9025L192.814 77.7113L192.552 77.5502L214.901 62.6507L217.287 61.0601L224.516 56.2379C225.736 55.4045 226.588 54.1315 226.892 52.6849C227.196 51.2384 226.929 49.7304 226.146 48.4761C225.764 47.8457 225.257 47.3 224.656 46.8724C224.056 46.4448 223.374 46.1444 222.653 45.9895C221.951 45.8347 221.225 45.8245 220.519 45.9595C219.812 46.0945 219.141 46.3719 218.546 46.7748L186.633 68.0367C186.363 65.6732 186.742 63.2808 187.73 61.1168C188.718 58.9528 190.278 57.099 192.24 55.7547ZM199.64 81.3959L187.831 89.2382C187.459 89.4903 187.039 89.664 186.598 89.7488C186.157 89.8336 185.703 89.8277 185.264 89.7315C184.808 89.6345 184.378 89.445 183.998 89.1749C183.619 88.9048 183.299 88.5597 183.059 88.161C182.542 87.3551 182.358 86.3798 182.545 85.4408C182.733 84.5018 183.278 83.6724 184.066 83.1274L190.7 78.7079C190.763 78.7573 190.83 78.8011 190.901 78.8388L191.415 79.1811L191.928 79.4831C192.109 79.5938 192.291 79.6844 192.472 79.775L192.985 80.0368L193.559 80.2885L194.082 80.4898L194.676 80.6911L195.21 80.8522L195.814 81.0032L196.348 81.114L196.962 81.2146L197.515 81.2851H198.119H198.683H199.609L199.64 81.3959ZM215.133 57.9594C214.982 57.8688 214.821 57.7883 214.66 57.7077L214.126 57.4762L213.643 57.2749L213.099 57.0735L212.606 56.9124L212.042 56.7614L211.539 56.6406L210.965 56.5299L210.462 56.4493C210.271 56.4493 210.079 56.399 209.888 56.3889L209.385 56.3386H208.801H207.854L219.663 48.4661C220.035 48.2145 220.455 48.0411 220.896 47.9563C221.337 47.8715 221.791 47.8771 222.23 47.9728C222.685 48.072 223.115 48.2623 223.494 48.5323C223.872 48.8022 224.193 49.1461 224.435 49.5433C224.952 50.3492 225.136 51.3244 224.949 52.2634C224.761 53.2025 224.216 54.0319 223.428 54.5769L216.794 58.9963L216.623 58.8856L216.15 58.5635L215.677 58.2816L215.133 57.9594ZM201.794 60.3554C202.066 60.1742 202.338 60.0131 202.609 59.8621L202.891 59.7111L203.445 59.4292L203.787 59.2883C203.958 59.2178 204.13 59.1373 204.311 59.0769L204.683 58.946L205.187 58.7849L205.579 58.6843L206.072 58.5735L206.485 58.493L206.979 58.4225H207.391C207.552 58.4225 207.713 58.4225 207.885 58.4225H208.297H208.781H209.163H209.687H210.049L210.623 58.5131L210.935 58.5635C211.207 58.6239 211.479 58.6843 211.75 58.7648H211.801C212.093 58.8453 212.375 58.946 212.656 59.0467L212.928 59.1574C213.123 59.2312 213.314 59.3118 213.502 59.399L213.814 59.54L214.328 59.8118L214.64 59.993L214.911 60.1641L192.593 75.0636L190.207 76.6542L182.978 81.4764C181.758 82.3098 180.906 83.5829 180.602 85.0294C180.298 86.4759 180.565 87.9839 181.347 89.2382C181.734 89.863 182.243 90.4034 182.843 90.8272C183.443 91.251 184.123 91.5494 184.841 91.7047C185.172 91.7713 185.509 91.8083 185.847 91.8154H185.968C186.272 91.8102 186.575 91.7799 186.874 91.7248L187.136 91.6644C187.368 91.6112 187.597 91.544 187.821 91.463L188.082 91.3624C188.38 91.232 188.666 91.0771 188.938 90.8993L220.861 69.6474C221.131 72.011 220.752 74.4033 219.764 76.5673C218.776 78.7314 217.216 80.5851 215.254 81.9294L192.673 97.0302C191.331 97.9355 189.819 98.56 188.229 98.8662C186.639 99.1725 185.004 99.154 183.421 98.8121C181.798 98.4526 180.264 97.7676 178.913 96.7986C177.561 95.8297 176.42 94.5968 175.559 93.1745C173.753 90.3111 173.127 86.8595 173.812 83.5444C174.497 80.2293 176.44 77.3087 179.233 75.3958L201.794 60.3554Z" stroke="#04564D" stroke-width="0.468578" mask="url(#path-19-outside-1_3302_1696)"/>
<path d="M219.148 84.2341C219.054 84.3277 218.979 84.439 218.928 84.5617C218.877 84.6844 218.85 84.8159 218.85 84.9488C218.85 85.0817 218.877 85.2133 218.928 85.336C218.979 85.4587 219.054 85.57 219.148 85.6636L223.175 89.6905C223.269 89.7838 223.381 89.8576 223.503 89.9077C223.626 89.9578 223.757 89.9832 223.89 89.9824C224.022 89.9832 224.153 89.9578 224.276 89.9077C224.399 89.8576 224.51 89.7838 224.604 89.6905C224.699 89.5969 224.774 89.4855 224.825 89.3629C224.876 89.2402 224.902 89.1086 224.902 88.9757C224.902 88.8428 224.876 88.7112 224.825 88.5886C224.774 88.4659 224.699 88.3545 224.604 88.2609L220.578 84.2341C220.484 84.1397 220.373 84.0648 220.25 84.0137C220.127 83.9626 219.996 83.9363 219.863 83.9363C219.73 83.9363 219.598 83.9626 219.476 84.0137C219.353 84.0648 219.242 84.1397 219.148 84.2341V84.2341Z" fill="#04564D"/>
<path d="M226.907 82.9359C226.907 82.6689 226.801 82.4129 226.612 82.2241C226.424 82.0353 226.168 81.9292 225.901 81.9292H223.887C223.62 81.9292 223.364 82.0353 223.175 82.2241C222.986 82.4129 222.88 82.6689 222.88 82.9359C222.88 83.2029 222.986 83.459 223.175 83.6478C223.364 83.8366 223.62 83.9426 223.887 83.9426H225.901C226.168 83.9426 226.424 83.8366 226.612 83.6478C226.801 83.459 226.907 83.2029 226.907 82.9359Z" fill="#04564D"/>
<path d="M216.849 90.989C217.116 90.989 217.372 90.883 217.56 90.6942C217.749 90.5054 217.855 90.2493 217.855 89.9823V87.9689C217.855 87.7019 217.749 87.4458 217.56 87.257C217.372 87.0682 217.116 86.9622 216.849 86.9622C216.582 86.9622 216.325 87.0682 216.137 87.257C215.948 87.4458 215.842 87.7019 215.842 87.9689V89.9823C215.842 90.2493 215.948 90.5054 216.137 90.6942C216.325 90.883 216.582 90.989 216.849 90.989Z" fill="#04564D"/>
<path d="M187.641 52.7326C187.774 52.7334 187.905 52.708 188.028 52.6579C188.15 52.6078 188.262 52.5339 188.356 52.4406C188.543 52.252 188.649 51.9969 188.649 51.7309C188.649 51.4649 188.543 51.2098 188.356 51.0212L184.329 46.9943C184.14 46.8068 183.885 46.7015 183.619 46.7015C183.353 46.7015 183.098 46.8068 182.909 46.9943C182.722 47.1829 182.617 47.4381 182.617 47.704C182.617 47.97 182.722 48.2251 182.909 48.4138L186.936 52.4406C187.124 52.6266 187.377 52.7315 187.641 52.7326Z" fill="#04564D"/>
<path d="M190.666 47.7003V45.6869C190.666 45.4199 190.56 45.1638 190.371 44.975C190.182 44.7862 189.926 44.6802 189.659 44.6802C189.392 44.6802 189.136 44.7862 188.947 44.975C188.759 45.1638 188.652 45.4199 188.652 45.6869V47.7003C188.652 47.9673 188.759 48.2234 188.947 48.4122C189.136 48.601 189.392 48.7071 189.659 48.7071C189.926 48.7071 190.182 48.601 190.371 48.4122C190.56 48.2234 190.666 47.9673 190.666 47.7003Z" fill="#04564D"/>
<path d="M181.614 54.7468C181.614 55.0138 181.72 55.2699 181.909 55.4587C182.098 55.6475 182.354 55.7536 182.621 55.7536H184.634C184.901 55.7536 185.157 55.6475 185.346 55.4587C185.535 55.2699 185.641 55.0138 185.641 54.7468C185.641 54.4798 185.535 54.2238 185.346 54.035C185.157 53.8462 184.901 53.7401 184.634 53.7401H182.621C182.354 53.7401 182.098 53.8462 181.909 54.035C181.72 54.2238 181.614 54.4798 181.614 54.7468Z" fill="#04564D"/>
<path d="M40.8244 425.169L70.9056 408.79L100.987 425.169L100.998 425.175L130.747 441.978L131.021 475.099V475.125L130.747 508.246L100.998 525.049L100.976 525.061L70.9056 541.434L40.835 525.061L40.8243 525.055L11.0644 508.246L10.7902 475.112L11.0644 441.978L40.8244 425.169Z" stroke="#04564D" stroke-width="3.14493"/>
<path d="M61.3416 458.02C61.3416 452.844 65.5373 448.648 70.7131 448.648H82.2252V459.706C82.2252 464.882 78.0294 469.078 72.8536 469.078H61.3416V458.02Z" fill="#00AB97"/>
<path d="M60.7534 503.968V503.968V503.621C60.7534 502.787 61.1234 502.105 61.7394 501.548C62.3566 500.99 63.2197 500.559 64.1994 500.234C66.1587 499.582 68.568 499.354 70.3593 499.354C72.1506 499.354 74.5598 499.582 76.5191 500.234C77.4988 500.559 78.3619 500.99 78.9791 501.548C79.5951 502.105 79.9651 502.787 79.9651 503.621V507.18C79.9651 507.773 80.4453 508.253 81.0374 508.253C81.6296 508.253 82.1098 507.773 82.1098 507.18V504.532C84.1183 503.348 87.4021 502.914 89.9366 502.914C91.7278 502.914 94.1369 503.141 96.096 503.793C97.0757 504.119 97.9387 504.55 98.5559 505.108C99.1718 505.664 99.5418 506.347 99.5418 507.18C99.5418 507.773 100.022 508.253 100.614 508.253C101.206 508.253 101.686 507.773 101.686 507.18C101.686 506.341 101.484 505.348 100.797 504.394C100.111 503.44 98.944 502.529 97.0254 501.847C96.1202 501.525 95.1727 501.299 94.2661 501.139C94.3912 501.015 94.5122 500.884 94.6282 500.747C95.7379 499.434 96.3473 497.656 96.3473 495.74V493.705C96.3473 491.79 95.7379 490.011 94.628 488.698C93.4466 487.301 91.7796 486.531 89.9357 486.531C88.0919 486.531 86.425 487.301 85.2436 488.699C84.134 490.011 83.5245 491.79 83.5245 493.705V495.74C83.5245 497.655 84.134 499.434 85.2439 500.747C85.3605 500.885 85.4822 501.016 85.608 501.141C84.3805 501.357 83.0761 501.696 81.9089 502.226C81.4863 500.818 80.2978 499.3 77.4483 498.288C76.5431 497.966 75.5957 497.739 74.6891 497.58C74.8142 497.455 74.9352 497.324 75.0513 497.187C76.1612 495.875 76.7706 494.096 76.7706 492.181V490.146C76.7706 488.23 76.1612 486.452 75.0515 485.139L75.0068 485.177L75.0515 485.139C73.8701 483.742 72.2033 482.972 70.3594 482.972C68.5155 482.972 66.8486 483.742 65.6672 485.139C64.5573 486.452 63.9478 488.23 63.9478 490.146V492.181C63.9478 494.096 64.5573 495.875 65.667 497.187C65.783 497.324 65.904 497.455 66.0292 497.58C65.1227 497.739 64.1753 497.966 63.2703 498.288C60.4208 499.3 59.2323 500.818 58.8096 502.226C57.6424 501.696 56.338 501.357 55.1106 501.141C55.2364 501.016 55.358 500.885 55.4746 500.747C56.5844 499.434 57.194 497.655 57.194 495.74V493.705C57.194 491.79 56.5845 490.011 55.4749 488.699C54.2935 487.301 52.6266 486.531 50.7827 486.531C48.9389 486.531 47.272 487.301 46.0905 488.698C44.9807 490.011 44.3712 491.79 44.3712 493.705V495.74C44.3712 497.656 44.9806 499.434 46.0903 500.747L46.1245 500.718L46.0903 500.747C46.2063 500.884 46.3273 501.015 46.4525 501.139C45.546 501.299 44.5986 501.525 43.6935 501.847C41.7747 502.529 40.6081 503.44 39.9216 504.394C39.235 505.348 39.032 506.341 39.032 507.18C39.032 507.773 39.5121 508.253 40.1043 508.253C40.6966 508.253 41.1767 507.773 41.1767 507.18C41.1767 506.347 41.5467 505.664 42.1626 505.108C42.7799 504.55 43.643 504.119 44.6227 503.793C46.582 503.141 48.9913 502.914 50.7826 502.914C53.3169 502.914 56.6002 503.348 58.6087 504.532V507.18C58.6087 507.773 59.0888 508.253 59.681 508.253C60.2733 508.253 60.7534 507.773 60.7534 507.18V503.991C60.7535 503.985 60.7534 503.974 60.7534 503.97C60.7534 503.969 60.7534 503.968 60.7534 503.968ZM46.5158 493.705C46.5158 490.78 48.3173 488.676 50.7827 488.676C53.248 488.676 55.0493 490.78 55.0493 493.705V495.74C55.0493 498.665 53.2478 500.769 50.7824 500.769C48.3171 500.769 46.5158 498.665 46.5158 495.74V493.705ZM66.0925 490.146C66.0925 487.221 67.894 485.117 70.3594 485.117C72.8247 485.117 74.626 487.221 74.626 490.146V492.181C74.626 495.105 72.8245 497.21 70.359 497.21C67.8938 497.21 66.0925 495.105 66.0925 492.181V490.146ZM85.6692 493.705C85.6692 490.78 87.4705 488.676 89.9357 488.676C92.4012 488.676 94.2027 490.78 94.2027 493.705V495.74C94.2027 498.665 92.4014 500.769 89.9361 500.769C87.4706 500.769 85.6692 498.665 85.6692 495.74V493.705Z" fill="#04564D" stroke="#04564D" stroke-width="0.117145"/>
<path d="M47.342 475.483C47.5628 475.557 47.7869 475.592 48.0074 475.592C48.6385 475.592 49.237 475.299 49.6368 474.766L53.4459 469.688H77.4181C80.1787 469.688 82.4244 467.442 82.4244 464.681V444.727C82.4244 442.509 80.6198 440.704 78.4016 440.704H45.0416C42.8233 440.704 41.0187 442.509 41.0187 444.727V465.665C41.0187 467.883 42.8233 469.688 45.0416 469.688H45.9363V473.533C45.9363 474.432 46.4885 475.199 47.342 475.483ZM45.0416 467.543C44.006 467.543 43.1633 466.7 43.1633 465.665V444.727C43.1633 443.691 44.006 442.849 45.0416 442.849H78.4016C79.4372 442.849 80.2798 443.691 80.2798 444.727V464.681C80.2798 466.259 78.996 467.543 77.4181 467.543H52.9097C52.5722 467.543 52.2544 467.702 52.0519 467.972L48.0809 473.266V468.615C48.0809 468.023 47.6009 467.543 47.0086 467.543H45.0416Z" fill="#04564D" stroke="#04564D" stroke-width="0.117145"/>
<path d="M96.3811 483.594C96.1603 483.668 95.9363 483.703 95.7157 483.703C95.0846 483.703 94.4861 483.41 94.0864 482.877L90.2773 477.798H66.305C63.5445 477.798 61.2987 475.553 61.2987 472.792V452.838C61.2987 450.62 63.1033 448.815 65.3216 448.815H98.6816C100.9 448.815 102.704 450.62 102.704 452.838V473.775C102.704 475.994 100.9 477.798 98.6816 477.798H97.7868V481.644C97.7868 482.543 97.2346 483.309 96.3811 483.594ZM98.6816 475.654C99.7172 475.654 100.56 474.811 100.56 473.775V452.838C100.56 451.802 99.7172 450.96 98.6816 450.96H65.3216C64.286 450.96 63.4434 451.802 63.4434 452.838V472.792C63.4434 474.37 64.7271 475.654 66.305 475.654H90.8134C91.151 475.654 91.4688 475.813 91.6713 476.083L95.6422 481.377V476.726C95.6422 476.134 96.1223 475.654 96.7145 475.654H98.6816Z" fill="#04564D" stroke="#04564D" stroke-width="0.117145"/>
<path d="M41.2707 152.884L71.3519 136.506L101.433 152.884L101.444 152.89L131.193 169.693L131.467 202.814V202.84L131.193 235.961L101.444 252.765L101.423 252.777L71.3519 269.149L41.2813 252.777L41.2706 252.771L11.5107 235.961L11.2365 202.827L11.5107 169.693L41.2707 152.884Z" stroke="#04564D" stroke-width="3.14493"/>
<path d="M43.7697 184.356L48.8471 189.172C48.8754 189.199 48.9202 189.198 48.9471 189.17L55.0738 182.711C55.1007 182.683 55.0995 182.638 55.0712 182.611L49.9938 177.794C49.9655 177.768 49.9207 177.769 49.8938 177.797L43.7671 184.256C43.7402 184.284 43.7414 184.329 43.7697 184.356Z" fill="#00C0AA" stroke="#04564D" stroke-width="2.82493"/>
<path d="M100.562 184.356L95.4849 189.172C95.4565 189.199 95.4117 189.198 95.3848 189.17L89.2581 182.711C89.2312 182.683 89.2324 182.638 89.2608 182.611L94.3381 177.794C94.3664 177.768 94.4112 177.769 94.4381 177.797L100.565 184.256C100.592 184.284 100.591 184.329 100.562 184.356Z" fill="#00C0AA" stroke="#04564D" stroke-width="2.82493"/>
<circle cx="72.5028" cy="205.795" r="28.3369" stroke="#04564D" stroke-width="2.82493"/>
<rect x="65.8558" y="168.478" width="13.0897" height="2.40568" rx="0.919819" fill="#04564D"/>
<rect x="73.7648" y="169.945" width="8.32982" height="2.40568" rx="0.919819" transform="rotate(90 73.7648 169.945)" fill="#04564D"/>
<mask id="path-37-outside-2_3302_1696" maskUnits="userSpaceOnUse" x="43.4577" y="176.825" width="47.1299" height="53.2116" fill="black">
<rect fill="white" x="43.4577" y="176.825" width="47.1299" height="53.2116"/>
<path d="M81.3535 186.433C78.4543 185.142 75.302 184.519 72.1297 184.611C68.9573 184.702 65.8461 185.505 63.026 186.961C60.2058 188.417 57.7489 190.487 55.8367 193.02C53.9246 195.553 52.6061 198.483 51.9789 201.594C51.3516 204.705 51.4315 207.918 52.2127 210.994C52.9939 214.07 54.4564 216.931 56.4921 219.365C58.5278 221.8 61.0847 223.746 63.9737 225.06C66.8628 226.373 70.0101 227.021 73.183 226.954L73.1269 224.276C70.3553 224.334 67.6062 223.768 65.0826 222.621C62.559 221.473 60.3256 219.774 58.5474 217.647C56.7692 215.52 55.4917 213.021 54.8093 210.334C54.1269 207.647 54.0571 204.841 54.6051 202.124C55.153 199.406 56.3047 196.847 57.9749 194.634C59.6452 192.422 61.7913 190.613 64.2547 189.342C66.7181 188.07 69.4358 187.369 72.2068 187.289C74.9778 187.209 77.7313 187.753 80.2638 188.88L81.3535 186.433Z"/>
</mask>
<path d="M81.3535 186.433C78.4543 185.142 75.302 184.519 72.1297 184.611C68.9573 184.702 65.8461 185.505 63.026 186.961C60.2058 188.417 57.7489 190.487 55.8367 193.02C53.9246 195.553 52.6061 198.483 51.9789 201.594C51.3516 204.705 51.4315 207.918 52.2127 210.994C52.9939 214.07 54.4564 216.931 56.4921 219.365C58.5278 221.8 61.0847 223.746 63.9737 225.06C66.8628 226.373 70.0101 227.021 73.183 226.954L73.1269 224.276C70.3553 224.334 67.6062 223.768 65.0826 222.621C62.559 221.473 60.3256 219.774 58.5474 217.647C56.7692 215.52 55.4917 213.021 54.8093 210.334C54.1269 207.647 54.0571 204.841 54.6051 202.124C55.153 199.406 56.3047 196.847 57.9749 194.634C59.6452 192.422 61.7913 190.613 64.2547 189.342C66.7181 188.07 69.4358 187.369 72.2068 187.289C74.9778 187.209 77.7313 187.753 80.2638 188.88L81.3535 186.433Z" fill="#04564D"/>
<path d="M81.3535 186.433C78.4543 185.142 75.302 184.519 72.1297 184.611C68.9573 184.702 65.8461 185.505 63.026 186.961C60.2058 188.417 57.7489 190.487 55.8367 193.02C53.9246 195.553 52.6061 198.483 51.9789 201.594C51.3516 204.705 51.4315 207.918 52.2127 210.994C52.9939 214.07 54.4564 216.931 56.4921 219.365C58.5278 221.8 61.0847 223.746 63.9737 225.06C66.8628 226.373 70.0101 227.021 73.183 226.954L73.1269 224.276C70.3553 224.334 67.6062 223.768 65.0826 222.621C62.559 221.473 60.3256 219.774 58.5474 217.647C56.7692 215.52 55.4917 213.021 54.8093 210.334C54.1269 207.647 54.0571 204.841 54.6051 202.124C55.153 199.406 56.3047 196.847 57.9749 194.634C59.6452 192.422 61.7913 190.613 64.2547 189.342C66.7181 188.07 69.4358 187.369 72.2068 187.289C74.9778 187.209 77.7313 187.753 80.2638 188.88L81.3535 186.433Z" stroke="#04564D" stroke-width="0.173348" mask="url(#path-37-outside-2_3302_1696)"/>
<rect x="87.6194" y="192.647" width="22.2612" height="2.49235" rx="0.963156" transform="rotate(134 87.6194 192.647)" fill="#04564D" stroke="#04564D" stroke-width="0.0866738"/>
<rect x="42.4128" y="199.597" width="11.4624" height="2.40568" rx="1.20284" transform="rotate(-180 42.4128 199.597)" fill="#00C0AA"/>
<rect x="28.2789" y="199.21" width="5.09438" height="2.40568" rx="1.20284" transform="rotate(-180 28.2789 199.21)" fill="#00C0AA"/>
<rect x="42.4507" y="212.107" width="13.3277" height="2.40568" rx="1.20284" transform="rotate(-180 42.4507 212.107)" fill="#00C0AA"/>
<rect x="46.9728" y="224.544" width="19.2776" height="2.40568" rx="1.20284" transform="rotate(-180 46.9728 224.544)" fill="#00C0AA"/>
<rect x="73.1593" y="236.975" width="36.6512" height="2.40568" rx="1.20284" transform="rotate(-180 73.1593 236.975)" fill="#00C0AA"/>
<rect x="43.1886" y="198.208" width="12.1699" height="2.16684" rx="1.08342" transform="rotate(-180 43.1886 198.208)" fill="#04564D"/>
<rect x="28.8276" y="198.13" width="4.80499" height="2.16684" rx="1.08342" transform="rotate(-180 28.8276 198.13)" fill="#04564D"/>
<rect x="44.8536" y="210.64" width="13.3277" height="2.16684" rx="1.08342" transform="rotate(-180 44.8536 210.64)" fill="#04564D"/>
<rect x="49.3757" y="223.076" width="19.2776" height="2.16684" rx="1.08342" transform="rotate(-180 49.3757 223.076)" fill="#04564D"/>
<rect x="76.2434" y="235.509" width="36.6512" height="2.16684" rx="1.08342" transform="rotate(-180 76.2434 235.509)" fill="#04564D"/>
<path d="M233.987 426.169L203.906 409.79L173.824 426.169L173.814 426.175L144.064 442.978L143.79 476.099V476.125L144.064 509.246L173.814 526.049L173.835 526.061L203.906 542.434L233.976 526.061L233.987 526.055L263.747 509.246L264.021 476.112L263.747 442.978L233.987 426.169Z" stroke="#04564D" stroke-width="3.14493"/>
<circle cx="204.436" cy="476.568" r="15.5121" fill="#00AB97"/>
<mask id="mask0_3302_1696" style="mask-type:alpha" maskUnits="userSpaceOnUse" x="188" y="461" width="32" height="32">
<circle cx="204.436" cy="476.568" r="15.5121" fill="#00AB97"/>
</mask>
<g mask="url(#mask0_3302_1696)">
<circle cx="204.444" cy="493.916" r="13.289" fill="#00C0AA" stroke="#04564D" stroke-width="2.34289"/>
<circle cx="204.442" cy="471.305" r="5.92732" fill="#00C0AA" stroke="#04564D" stroke-width="2.34289"/>
</g>
<path d="M204.475 458.713C194.69 458.713 186.729 466.674 186.729 476.459C186.729 486.244 194.69 494.206 204.475 494.206C214.26 494.206 222.222 486.244 222.222 476.459C222.222 466.674 214.26 458.713 204.475 458.713ZM204.475 491.987C195.913 491.987 188.947 485.022 188.947 476.459C188.947 467.897 195.913 460.931 204.475 460.931C213.038 460.931 220.003 467.897 220.003 476.459C220.003 485.022 213.038 491.987 204.475 491.987Z" fill="#04564D"/>
<path d="M235.55 472.055C233.489 472.055 231.767 473.475 231.272 475.384H226.62C226.358 470.105 224.25 465.316 220.918 461.636L224.212 458.343C224.886 458.741 225.651 458.969 226.454 458.969C227.639 458.969 228.751 458.508 229.588 457.672C231.318 455.942 231.319 453.127 229.591 451.395C227.916 449.719 224.995 449.718 223.314 451.396C221.859 452.853 221.646 455.074 222.644 456.774L219.35 460.068C215.671 456.738 210.882 454.63 205.603 454.367V449.716C207.512 449.22 208.931 447.497 208.931 445.437C208.931 442.99 206.941 441 204.494 441C202.047 441 200.057 442.99 200.057 445.437C200.057 447.497 201.476 449.22 203.385 449.716V454.366C198.105 454.629 193.317 456.737 189.637 460.067L186.343 456.774C187.341 455.074 187.128 452.853 185.672 451.396C184.833 450.559 183.72 450.096 182.534 450.096C181.349 450.096 180.235 450.558 179.396 451.396C177.667 453.126 177.667 455.941 179.397 457.671C180.235 458.508 181.348 458.969 182.534 458.969C183.338 458.969 184.101 458.741 184.776 458.344L188.069 461.637C184.737 465.316 182.63 470.105 182.366 475.384H177.716C177.22 473.476 175.499 472.055 173.439 472.055C170.993 472.055 169.001 474.046 169 476.494C169.001 478.94 170.993 480.928 173.439 480.928C175.499 480.928 177.22 479.51 177.716 477.601H182.366C182.628 482.879 184.737 487.669 188.067 491.349L184.766 494.652C183.076 493.699 180.8 493.909 179.395 495.314C177.666 497.043 177.666 499.858 179.396 501.592C180.235 502.428 181.348 502.888 182.532 502.888C183.717 502.888 184.832 502.427 185.671 501.588C186.508 500.751 186.969 499.636 186.969 498.451C186.968 497.646 186.741 496.884 186.344 496.21L189.636 492.917C193.315 496.249 198.105 498.356 203.385 498.619V503.27C201.476 503.766 200.057 505.488 200.057 507.549C200.057 509.996 202.047 511.986 204.494 511.986C206.941 511.986 208.931 509.996 208.931 507.549C208.931 505.488 207.512 503.766 205.603 503.27V498.619C210.883 498.356 215.671 496.249 219.35 492.918L222.644 496.211C221.646 497.91 221.859 500.132 223.316 501.589C224.154 502.427 225.268 502.888 226.453 502.888C227.637 502.888 228.752 502.427 229.591 501.589C231.321 499.86 231.321 497.044 229.591 495.315C228.752 494.478 227.639 494.016 226.454 494.016C225.649 494.016 224.886 494.245 224.211 494.643L220.918 491.35C224.25 487.67 226.356 482.88 226.62 477.602H231.271C231.768 479.51 233.489 480.928 235.549 480.929C237.995 480.929 239.986 478.94 239.987 476.493C239.988 474.046 237.997 472.055 235.55 472.055ZM224.885 452.963C225.304 452.544 225.862 452.313 226.455 452.313C227.047 452.313 227.604 452.544 228.022 452.962C228.886 453.828 228.886 455.237 228.021 456.102C227.185 456.941 225.723 456.936 224.886 456.102C224.021 455.236 224.019 453.827 224.885 452.963ZM202.276 445.437C202.276 444.213 203.271 443.218 204.494 443.218C205.716 443.218 206.712 444.213 206.712 445.437C206.712 446.66 205.716 447.655 204.494 447.655C203.271 447.655 202.276 446.66 202.276 445.437ZM180.966 456.101C180.102 455.236 180.1 453.828 180.965 452.963C181.384 452.545 181.942 452.313 182.534 452.313C183.127 452.313 183.684 452.544 184.103 452.963C184.967 453.828 184.966 455.235 184.102 456.101C183.264 456.938 181.804 456.938 180.966 456.101ZM173.439 478.71C172.214 478.71 171.22 477.716 171.218 476.494C171.22 475.269 172.214 474.273 173.439 474.273C174.66 474.273 175.655 475.27 175.656 476.493C175.656 477.716 174.661 478.71 173.439 478.71ZM184.103 500.02C183.266 500.857 181.8 500.856 180.966 500.022C180.1 499.156 180.1 497.746 180.965 496.882C181.383 496.464 181.939 496.233 182.532 496.233C183.125 496.233 183.683 496.464 184.102 496.883C184.522 497.301 184.752 497.858 184.752 498.452C184.752 499.045 184.522 499.602 184.103 500.02ZM206.712 507.549C206.712 508.772 205.716 509.767 204.494 509.767C203.271 509.767 202.276 508.772 202.276 507.549C202.276 506.326 203.271 505.331 204.494 505.331C205.716 505.331 206.712 506.326 206.712 507.549ZM228.023 496.883C228.887 497.748 228.887 499.156 228.023 500.021C227.186 500.859 225.724 500.859 224.886 500.021C224.022 499.156 224.022 497.75 224.886 496.884C225.305 496.465 225.862 496.234 226.455 496.234C227.047 496.234 227.604 496.465 228.023 496.883ZM204.494 496.457C193.487 496.457 184.532 487.503 184.529 476.496C184.529 476.495 184.53 476.494 184.53 476.492C184.53 476.489 184.529 476.489 184.529 476.487C184.533 465.481 193.487 456.527 204.494 456.527C215.502 456.527 224.459 465.483 224.459 476.492C224.459 487.5 215.502 496.457 204.494 496.457ZM235.55 478.71L235.549 479.819L235.55 478.71C234.327 478.71 233.333 477.715 233.332 476.492C233.332 475.268 234.327 474.273 235.55 474.272C236.774 474.272 237.77 475.268 237.77 476.491C237.768 477.715 236.772 478.71 235.55 478.71Z" fill="#04564D"/>
<path d="M101.434 18.1687L71.3528 1.79043L41.2713 18.1688L41.2608 18.1746L11.5116 34.9781L11.2373 68.099V68.125L11.5116 101.246L41.2608 118.049L41.2822 118.061L71.3528 134.434L101.423 118.061L101.434 118.055L131.194 101.246L131.468 68.112L131.194 34.9781L101.434 18.1687Z" stroke="#04564D" stroke-width="3.14493"/>
<circle cx="71.3987" cy="68.1728" r="31.9845" fill="#00C0AA" stroke="#04564D" stroke-width="2.29004"/>
<mask id="mask1_3302_1696" style="mask-type:alpha" maskUnits="userSpaceOnUse" x="43" y="40" width="57" height="57">
<circle cx="71.4004" cy="68.176" r="28.0793" fill="white"/>
</mask>
<g mask="url(#mask1_3302_1696)">
<rect x="70.3969" y="40.0967" width="1.91909" height="56.1586" fill="#04564D"/>
<rect x="43.321" y="69.1355" width="1.91909" height="56.1586" transform="rotate(-90 43.321 69.1355)" fill="#04564D"/>
<rect x="90.5476" y="47.6035" width="1.91909" height="56.1586" transform="rotate(45 90.5476 47.6035)" fill="#04564D"/>
<rect x="50.8705" y="48.991" width="1.91909" height="56.1586" transform="rotate(-45 50.8705 48.991)" fill="#04564D"/>
</g>
<circle cx="71.4072" cy="68.5438" r="20.4162" fill="#00C0AA" stroke="#00C0AA" stroke-width="9.44643"/>
<circle cx="71.4072" cy="68.5438" r="14.5479" fill="#00AB97" stroke="#04564D" stroke-width="2.29004"/>
<mask id="path-65-outside-3_3302_1696" maskUnits="userSpaceOnUse" x="60.0745" y="45.105" width="22" height="35" fill="black">
<rect fill="white" x="60.0745" y="45.105" width="22" height="35"/>
<path fill-rule="evenodd" clip-rule="evenodd" d="M79.4361 67.5834C79.5321 67.7882 79.5855 67.9646 79.5855 68.109C79.5855 68.3269 79.5603 68.5527 79.5121 68.7843C79.4701 73.2666 75.8235 76.8872 71.3313 76.8872C66.8435 76.8872 63.1996 73.2736 63.1506 68.7974C63.1007 68.5612 63.0745 68.331 63.0745 68.109C63.0745 67.9519 63.1318 67.757 63.2342 67.5287C63.5673 65.2178 64.8662 63.2191 66.7087 61.9551C67.0917 61.2261 67.4282 60.469 67.668 59.7015C68.311 57.6427 68.7018 55.5089 69.0439 53.6415C69.6203 50.495 70.0581 48.1049 71.33 48.1049C72.5467 48.1049 72.8742 50.2919 73.3151 53.2359C73.6087 55.1962 73.9525 57.4921 74.6426 59.7015C74.8491 60.3625 75.1383 61.0158 75.4744 61.65C77.5847 62.8918 79.0888 65.0532 79.4361 67.5834Z"/>
</mask>
<path fill-rule="evenodd" clip-rule="evenodd" d="M79.4361 67.5834C79.5321 67.7882 79.5855 67.9646 79.5855 68.109C79.5855 68.3269 79.5603 68.5527 79.5121 68.7843C79.4701 73.2666 75.8235 76.8872 71.3313 76.8872C66.8435 76.8872 63.1996 73.2736 63.1506 68.7974C63.1007 68.5612 63.0745 68.331 63.0745 68.109C63.0745 67.9519 63.1318 67.757 63.2342 67.5287C63.5673 65.2178 64.8662 63.2191 66.7087 61.9551C67.0917 61.2261 67.4282 60.469 67.668 59.7015C68.311 57.6427 68.7018 55.5089 69.0439 53.6415C69.6203 50.495 70.0581 48.1049 71.33 48.1049C72.5467 48.1049 72.8742 50.2919 73.3151 53.2359C73.6087 55.1962 73.9525 57.4921 74.6426 59.7015C74.8491 60.3625 75.1383 61.0158 75.4744 61.65C77.5847 62.8918 79.0888 65.0532 79.4361 67.5834Z" fill="#00C0AA"/>
<path d="M79.4361 67.5834L77.1673 67.8947L77.2147 68.2401L77.3627 68.5557L79.4361 67.5834ZM79.5121 68.7843L77.27 68.318L77.2243 68.5381L77.2222 68.7629L79.5121 68.7843ZM63.1506 68.7974L65.4406 68.7723L65.4381 68.5455L65.3911 68.3235L63.1506 68.7974ZM63.2342 67.5287L65.3237 68.466L65.4551 68.1731L65.5009 67.8554L63.2342 67.5287ZM66.7087 61.9551L68.0042 63.8434L68.472 63.5225L68.7359 63.0204L66.7087 61.9551ZM67.668 59.7015L69.8539 60.3842L69.8539 60.3842L67.668 59.7015ZM69.0439 53.6415L71.2965 54.0541L71.2965 54.0541L69.0439 53.6415ZM73.3151 53.2359L75.5799 52.8967L75.5799 52.8967L73.3151 53.2359ZM74.6426 59.7015L76.8285 59.0187L76.8285 59.0187L74.6426 59.7015ZM75.4744 61.65L73.451 62.7223L73.7544 63.295L74.313 63.6237L75.4744 61.65ZM81.8756 68.109C81.8756 67.4615 81.6543 66.92 81.5095 66.6111L77.3627 68.5557C77.3752 68.5823 77.3635 68.5625 77.3468 68.5046C77.3312 68.4506 77.2955 68.3104 77.2955 68.109H81.8756ZM81.7542 69.2507C81.83 68.8861 81.8756 68.5031 81.8756 68.109H77.2955C77.2955 68.1507 77.2905 68.2194 77.27 68.318L81.7542 69.2507ZM77.2222 68.7629C77.1919 71.99 74.566 74.5971 71.3313 74.5971V79.1772C77.0811 79.1772 81.7483 74.5432 81.802 68.8058L77.2222 68.7629ZM71.3313 74.5971C68.0998 74.5971 65.4758 71.9951 65.4406 68.7723L60.8607 68.8224C60.9234 74.5522 65.5871 79.1772 71.3313 79.1772V74.5971ZM60.7844 68.109C60.7844 68.5104 60.8317 68.9004 60.9102 69.2713L65.3911 68.3235C65.3697 68.222 65.3645 68.1515 65.3645 68.109H60.7844ZM61.1448 66.5914C61.0012 66.9114 60.7844 67.4628 60.7844 68.109H65.3645C65.3645 68.2989 65.3316 68.4259 65.3211 68.4632C65.3094 68.5052 65.3043 68.5091 65.3237 68.466L61.1448 66.5914ZM65.5009 67.8554C65.7397 66.1979 66.6724 64.7571 68.0042 63.8434L65.4132 60.0667C63.06 61.6811 61.3949 64.2376 60.9676 67.202L65.5009 67.8554ZM65.4821 59.0187C65.2947 59.6186 65.0203 60.2451 64.6815 60.8898L68.7359 63.0204C69.1632 62.2072 69.5617 61.3194 69.8539 60.3842L65.4821 59.0187ZM66.7913 53.2289C66.4457 55.1156 66.077 57.114 65.4821 59.0187L69.8539 60.3842C70.545 58.1715 70.9579 55.9022 71.2965 54.0541L66.7913 53.2289ZM71.33 45.8149C70.1724 45.8149 69.3098 46.4028 68.7618 47.0569C68.2671 47.6474 67.965 48.3537 67.7604 48.9491C67.3509 50.1407 67.0668 51.7251 66.7913 53.2289L71.2965 54.0541C71.5974 52.4114 71.8204 51.2275 72.0919 50.4375C72.2278 50.042 72.3096 49.9541 72.2727 49.9982C72.1825 50.1058 71.8516 50.395 71.33 50.395V45.8149ZM75.5799 52.8967C75.3706 51.4994 75.1535 50.0042 74.7971 48.8764C74.6187 48.3119 74.3409 47.6163 73.8524 47.0287C73.2992 46.3631 72.4447 45.8149 71.33 45.8149V50.395C70.8237 50.395 70.4664 50.1201 70.3305 49.9566C70.2594 49.8711 70.3192 49.9062 70.4299 50.2565C70.6516 50.9582 70.8187 52.0284 71.0503 53.5751L75.5799 52.8967ZM76.8285 59.0187C76.1993 57.0042 75.877 54.8804 75.5799 52.8967L71.0503 53.5751C71.3404 55.5119 71.7058 57.98 72.4567 60.3842L76.8285 59.0187ZM77.4979 60.5777C77.2098 60.034 76.9828 59.5128 76.8285 59.0187L72.4567 60.3842C72.7153 61.2122 73.0669 61.9976 73.451 62.7223L77.4979 60.5777ZM74.313 63.6237C75.8376 64.5209 76.9182 66.0798 77.1673 67.8947L81.7048 67.272C81.2595 64.0266 79.3317 61.2627 76.6358 59.6763L74.313 63.6237Z" fill="#04564D" mask="url(#path-65-outside-3_3302_1696)"/>
<circle cx="71.2458" cy="68.7039" r="2.99617" fill="#00AB97" stroke="#04564D" stroke-width="2.29004"/>
<path d="M173.698 152.884L203.779 136.506L233.861 152.884L233.871 152.89L263.62 169.693L263.895 202.814V202.84L263.62 235.961L233.871 252.765L233.85 252.777L203.779 269.149L173.709 252.777L173.698 252.771L143.938 235.961L143.664 202.827L143.938 169.693L173.698 152.884Z" stroke="#04564D" stroke-width="3.14493"/>
<g clip-path="url(#clip0_3302_1696)">
<path d="M235.006 215.475C235.146 215.192 235.146 214.839 235.146 214.486V213.638C235.146 211.943 233.745 210.53 232.063 210.53H230.521V200.994C230.521 200.429 230.03 199.934 229.469 199.934H228.418V199.723C228.418 199.511 228.488 199.228 228.558 199.016L229.259 196.756H235.217C235.777 196.756 236.268 196.261 236.268 195.696V177.26C236.268 176.695 235.777 176.2 235.217 176.2H231.922C231.642 174.858 230.45 173.869 229.049 173.869H228.418C228.067 173.869 227.787 173.94 227.507 174.011C227.226 172.598 225.965 171.538 224.493 171.538H223.722C223.371 171.538 223.021 171.609 222.741 171.68C222.53 170.196 221.269 168.995 219.727 168.995H218.745C217.203 168.995 215.942 170.126 215.732 171.68C215.451 171.538 215.101 171.538 214.75 171.538H213.909C212.227 171.538 210.825 172.951 210.825 174.646V176.2H201.293C200.732 176.2 200.242 176.695 200.242 177.26V178.319H200.031C199.821 178.319 199.541 178.249 199.331 178.178L197.088 177.472V171.468C197.088 170.903 196.597 170.408 196.036 170.408H177.743C177.182 170.408 176.692 170.903 176.692 171.468V174.788C175.36 175.07 174.379 176.271 174.379 177.684V178.319C174.379 178.673 174.449 178.955 174.519 179.238C173.117 179.52 172.066 180.792 172.066 182.275V183.052C172.066 183.405 172.136 183.759 172.206 184.041C170.734 184.253 169.542 185.524 169.542 187.079V188.067C169.542 189.621 170.664 190.893 172.206 191.105C172.066 191.387 172.066 191.741 172.066 192.094V192.941C172.066 194.637 173.467 196.049 175.15 196.049H176.692V205.585C176.692 206.151 177.182 206.645 177.743 206.645H178.794V206.857C178.794 207.069 178.724 207.351 178.654 207.563L177.953 209.824H171.996C171.435 209.824 170.944 210.318 170.944 210.883V229.39C170.944 229.955 171.435 230.45 171.996 230.45H175.29C175.57 231.792 176.762 232.781 178.163 232.781H178.794C179.145 232.781 179.425 232.71 179.705 232.64C179.986 234.052 181.247 235.112 182.719 235.112H183.49C183.841 235.112 184.191 235.041 184.472 234.971C184.682 236.454 185.943 237.655 187.485 237.655H188.467C190.009 237.655 191.27 236.525 191.48 234.971C191.761 235.112 192.111 235.112 192.462 235.112H193.303C194.985 235.112 196.387 233.699 196.387 232.004V230.45H205.849C206.41 230.45 206.9 229.955 206.9 229.39V228.331H207.111C207.321 228.331 207.601 228.401 207.811 228.472L210.054 229.178V235.183C210.054 235.748 210.545 236.242 211.106 236.242H229.469C230.03 236.242 230.521 235.748 230.521 235.183V231.863C231.852 231.58 232.834 230.379 232.834 228.966V228.331C232.834 227.977 232.763 227.695 232.693 227.412C234.095 227.13 235.146 225.858 235.146 224.375V223.598C235.146 223.245 235.076 222.892 235.006 222.609C236.478 222.397 237.67 221.126 237.67 219.572V218.583C237.67 216.958 236.478 215.687 235.006 215.475ZM228.418 208.411C227.927 206.928 226.596 205.939 225.054 205.939H219.727C218.465 205.939 217.344 206.292 216.292 207.069L212.157 210.036V202.054H228.418V208.411V208.411ZM205.919 209.894H195.476C195.195 209.471 195.055 209.047 195.055 208.552V206.716H196.036C196.597 206.716 197.088 206.221 197.088 205.656V195.131C197.508 194.849 197.929 194.707 198.419 194.707H200.242V195.696C200.242 196.261 200.732 196.756 201.293 196.756H211.666C211.947 197.18 212.087 197.603 212.087 198.098V199.934H211.106C210.545 199.934 210.054 200.429 210.054 200.994V211.448C209.634 211.731 209.213 211.872 208.723 211.872H206.9V210.883C206.97 210.318 206.48 209.894 205.919 209.894ZM234.165 194.637H229.96L231.362 190.187C231.782 188.915 231.992 187.573 231.992 186.231V178.319H234.165V194.637ZM212.858 184.677V174.576C212.858 174.011 213.278 173.587 213.839 173.587H214.68C215.241 173.587 215.661 174.011 215.661 174.576V180.933C215.661 181.498 216.152 181.993 216.713 181.993C217.274 181.993 217.764 181.498 217.764 180.933V172.103C217.764 171.538 218.185 171.114 218.745 171.114H219.727C220.287 171.114 220.708 171.538 220.708 172.103V181.004C220.708 181.569 221.199 182.063 221.759 182.063C222.32 182.063 222.811 181.569 222.811 181.004V174.646C222.811 174.081 223.231 173.657 223.792 173.657H224.563C225.124 173.657 225.544 174.081 225.544 174.646V176.483C225.544 176.554 225.544 176.624 225.544 176.695C225.544 176.765 225.544 176.836 225.544 176.907V181.145C225.544 181.71 226.035 182.205 226.596 182.205C227.156 182.205 227.647 181.71 227.647 181.145V176.907C227.647 176.412 228.067 176.059 228.488 176.059H229.119C229.609 176.059 229.96 176.483 229.96 176.907V186.372C229.96 187.502 229.75 188.633 229.469 189.692L226.525 198.38C226.385 198.804 226.315 199.299 226.315 199.723V199.934H214.26V198.098C214.26 197.18 213.979 196.261 213.419 195.555L209.003 189.268C208.512 188.633 208.302 187.856 208.302 187.079V181.71C208.302 181.074 208.723 180.509 209.283 180.297L210.755 179.803V184.677C210.755 185.242 211.246 185.736 211.807 185.736C212.367 185.736 212.858 185.242 212.858 184.677ZM202.344 178.319H208.582C207.111 178.814 206.129 180.156 206.129 181.71V187.079C206.129 188.35 206.48 189.48 207.251 190.54L210.194 194.707H202.344V178.319ZM194.985 172.527V176.765L190.569 175.353C189.308 174.929 187.976 174.717 186.644 174.717H178.794V172.527H194.985ZM174.098 193.012V192.164C174.098 191.599 174.519 191.175 175.079 191.175H181.388C181.948 191.175 182.439 190.681 182.439 190.116C182.439 189.551 181.948 189.056 181.388 189.056H172.626C172.066 189.056 171.645 188.633 171.645 188.067V187.079C171.645 186.513 172.066 186.09 172.626 186.09H181.458C182.018 186.09 182.509 185.595 182.509 185.03C182.509 184.465 182.018 183.97 181.458 183.97H175.15C174.589 183.97 174.168 183.547 174.168 182.982V182.205C174.168 181.639 174.589 181.216 175.15 181.216H176.972C177.042 181.216 177.112 181.216 177.182 181.216C177.252 181.216 177.322 181.216 177.392 181.216H181.598C182.159 181.216 182.649 180.721 182.649 180.156C182.649 179.591 182.159 179.096 181.598 179.096H177.392C176.902 179.096 176.551 178.673 176.551 178.249V177.613C176.551 177.119 176.972 176.765 177.392 176.765H186.784C187.906 176.765 189.027 176.977 190.079 177.26L198.7 180.227C199.12 180.368 199.611 180.439 200.031 180.439H200.242V192.588H198.419C197.508 192.588 196.597 192.871 195.896 193.436L189.658 197.886C189.027 198.38 188.256 198.592 187.485 198.592H182.159C181.528 198.592 180.967 198.169 180.757 197.603L180.266 196.12H185.102C185.663 196.12 186.154 195.626 186.154 195.061C186.154 194.495 185.663 194.001 185.102 194.001H175.079C174.589 194.001 174.098 193.507 174.098 193.012ZM178.794 198.239C179.285 199.723 180.617 200.712 182.159 200.712H187.485C188.747 200.712 189.868 200.358 190.92 199.581L195.055 196.615V204.526H178.794V198.239ZM175.85 216.464C175.43 217.735 175.22 219.077 175.22 220.419V228.401H173.047V212.013H177.252L175.85 216.464ZM194.354 221.973V232.074C194.354 232.64 193.934 233.063 193.373 233.063H192.532C191.971 233.063 191.551 232.64 191.551 232.074V225.717C191.551 225.152 191.06 224.658 190.499 224.658C189.939 224.658 189.448 225.152 189.448 225.717V234.617C189.448 235.183 189.027 235.606 188.467 235.606H187.485C186.925 235.606 186.504 235.183 186.504 234.617V225.646C186.504 225.081 186.013 224.587 185.453 224.587C184.892 224.587 184.401 225.081 184.401 225.646V232.004C184.401 232.569 183.981 232.993 183.42 232.993H182.649C182.088 232.993 181.668 232.569 181.668 232.004V230.167C181.668 230.097 181.668 230.026 181.668 229.955C181.668 229.885 181.668 229.814 181.668 229.743V225.505C181.668 224.94 181.177 224.446 180.617 224.446C180.056 224.446 179.565 224.94 179.565 225.505V229.743C179.565 230.238 179.145 230.591 178.724 230.591H178.093C177.603 230.591 177.252 230.167 177.252 229.743V220.419C177.252 219.289 177.463 218.159 177.743 217.099L180.687 208.27C180.827 207.846 180.897 207.351 180.897 206.928V206.716H192.952V208.552C192.952 209.471 193.233 210.389 193.793 211.095L198.209 217.382C198.7 218.018 198.91 218.795 198.91 219.572V224.94C198.91 225.576 198.489 226.141 197.929 226.353L196.457 226.847V221.973C196.457 221.408 195.966 220.914 195.406 220.914C194.845 220.914 194.354 221.408 194.354 221.973ZM204.868 228.331H198.63C200.102 227.836 201.083 226.494 201.083 224.94V219.572C201.083 218.3 200.732 217.17 199.961 216.11L197.018 211.943H204.868V228.331ZM212.227 234.123V229.885L216.643 231.297C217.904 231.721 219.236 231.933 220.568 231.933H228.488V234.123H212.227ZM235.567 219.572C235.567 220.137 235.146 220.561 234.586 220.561H225.754C225.194 220.561 224.703 221.055 224.703 221.62C224.703 222.185 225.194 222.68 225.754 222.68H232.063C232.623 222.68 233.044 223.104 233.044 223.669V224.446C233.044 225.011 232.623 225.435 232.063 225.435H230.24C230.17 225.435 230.1 225.435 230.03 225.435C229.96 225.435 229.89 225.435 229.82 225.435H225.614C225.054 225.435 224.563 225.929 224.563 226.494C224.563 227.059 225.054 227.554 225.614 227.554H229.82C230.31 227.554 230.661 227.977 230.661 228.401V229.037C230.661 229.532 230.24 229.885 229.82 229.885H220.568C219.446 229.885 218.325 229.673 217.274 229.39L208.512 226.423C208.092 226.282 207.601 226.212 207.181 226.212H206.97V214.062H208.793C209.704 214.062 210.615 213.779 211.316 213.214L217.554 208.764C218.185 208.27 218.956 208.058 219.727 208.058H225.054C225.684 208.058 226.245 208.482 226.455 209.047L226.946 210.53H222.11C221.549 210.53 221.058 211.025 221.058 211.59C221.058 212.155 221.549 212.649 222.11 212.649H232.133C232.693 212.649 233.114 213.073 233.114 213.638V214.486C233.114 215.051 232.693 215.475 232.133 215.475H225.825C225.264 215.475 224.773 215.969 224.773 216.534C224.773 217.099 225.264 217.594 225.825 217.594H234.656C235.217 217.594 235.637 218.018 235.637 218.583V219.572H235.567Z" fill="#04564D"/>
</g>
</g>
<defs>
<clipPath id="clip0_3302_1696">
<rect width="70.0899" height="69.6377" fill="white" transform="translate(168.558 168.029)"/>
</clipPath>
</defs>
</svg>
