<svg width="759" height="159" viewBox="0 0 759 159" fill="none" xmlns="http://www.w3.org/2000/svg">
<path d="M23.52 103.451H83.2388V122.194H0V0H23.52V103.451Z" fill="#374151"/>
<path d="M139.419 125.134C105.058 125.134 90.3576 102.532 90.3576 76.0725C90.3576 49.98 105.058 27.3787 139.419 27.3787C173.78 27.3787 188.664 50.1637 188.664 76.0725C188.664 102.349 173.78 125.134 139.419 125.134ZM113.143 76.2563C113.143 98.6738 121.228 107.126 139.419 107.126C157.61 107.126 165.695 98.6738 165.695 76.2563C165.695 53.8388 157.61 45.3862 139.419 45.3862C121.228 45.3862 113.143 53.8388 113.143 76.2563Z" fill="#374151"/>
<path d="M251.033 125.134C216.671 125.134 201.971 102.532 201.971 76.0725C201.971 49.98 216.671 27.3787 251.033 27.3787C285.394 27.3787 300.278 50.1637 300.278 76.0725C300.278 102.349 285.394 125.134 251.033 125.134ZM224.756 76.2563C224.756 98.6738 232.841 107.126 251.033 107.126C269.224 107.126 277.309 98.6738 277.309 76.2563C277.309 53.8388 269.224 45.3862 251.033 45.3862C232.841 45.3862 224.756 53.8388 224.756 76.2563Z" fill="#374151"/>
<path d="M435.416 27.3787C458.017 27.3787 468.307 41.3437 468.307 65.415V122.194H445.522V67.9875C445.522 52.5525 439.091 46.1212 427.514 46.1212C412.079 46.1212 403.994 56.4112 403.994 81.9525V122.194H381.577V67.9875C381.577 52.5525 375.146 46.1212 363.569 46.1212C348.502 46.1212 340.233 56.4112 340.233 81.9525V122.194H317.448V30.3188H340.233V48.6938C345.746 36.1987 355.668 27.3787 372.206 27.3787C388.743 27.3787 398.482 35.4637 402.341 49.98C407.669 36.75 417.776 27.3787 435.416 27.3787Z" fill="#374151"/>
<path d="M532.566 108.964C546.715 108.964 553.514 102.716 556.086 94.4475H577.585C575.564 108.229 564.539 125.134 531.831 125.134C497.654 125.134 484.056 102.532 484.056 76.0725C484.056 49.245 499.124 27.3787 531.831 27.3787C563.804 27.3787 577.953 49.0612 577.953 75.1537C577.953 77.7262 577.769 80.115 577.401 82.32H506.106C507.76 102.716 518.05 108.964 532.566 108.964ZM532.199 43.365C517.866 43.365 508.679 49.245 506.474 67.2525H556.086C555.168 51.0825 547.083 43.365 532.199 43.365Z" fill="#374151"/>
<path d="M647.245 28.8488H651.655V50.8987H644.856C623.358 50.8987 617.294 63.7612 617.294 86.5462V122.194H594.509V30.3188H616.743V51.6338C621.52 38.0362 630.891 28.8488 647.245 28.8488Z" fill="#374151"/>
<path d="M736.436 30.3188H758.302L722.838 127.706C715.488 148.654 709.241 158.944 684.802 158.944H665.324V140.753H696.746L704.096 121.275H692.887L659.812 30.3188H683.148L705.749 91.875L709.976 104.921L714.018 91.875L736.436 30.3188Z" fill="#374151"/>
</svg>
