<svg width="93" height="16" viewBox="0 0 93 16" fill="none" xmlns="http://www.w3.org/2000/svg">
<path d="M0.0800002 12V0.832H1.04V11.168H6.512V12H0.0800002ZM12.3938 12.192C11.2631 12.192 10.3778 11.8133 9.73775 11.056C9.10842 10.2987 8.79375 9.23733 8.79375 7.872C8.79375 6.50667 9.10842 5.44533 9.73775 4.688C10.3778 3.93067 11.2631 3.552 12.3938 3.552C13.5244 3.552 14.4044 3.93067 15.0338 4.688C15.6738 5.44533 15.9938 6.50667 15.9938 7.872C15.9938 9.23733 15.6738 10.2987 15.0338 11.056C14.4044 11.8133 13.5244 12.192 12.3938 12.192ZM12.3938 11.392C13.2044 11.392 13.8444 11.136 14.3138 10.624C14.7831 10.112 15.0178 9.36533 15.0178 8.384V7.36C15.0178 6.37867 14.7831 5.632 14.3138 5.12C13.8444 4.608 13.2044 4.352 12.3938 4.352C11.5831 4.352 10.9431 4.608 10.4738 5.12C10.0044 5.632 9.76975 6.37867 9.76975 7.36V8.384C9.76975 9.36533 10.0044 10.112 10.4738 10.624C10.9431 11.136 11.5831 11.392 12.3938 11.392ZM21.9875 12.192C20.8568 12.192 19.9715 11.8133 19.3315 11.056C18.7022 10.2987 18.3875 9.23733 18.3875 7.872C18.3875 6.50667 18.7022 5.44533 19.3315 4.688C19.9715 3.93067 20.8568 3.552 21.9875 3.552C23.1182 3.552 23.9982 3.93067 24.6275 4.688C25.2675 5.44533 25.5875 6.50667 25.5875 7.872C25.5875 9.23733 25.2675 10.2987 24.6275 11.056C23.9982 11.8133 23.1182 12.192 21.9875 12.192ZM21.9875 11.392C22.7982 11.392 23.4382 11.136 23.9075 10.624C24.3768 10.112 24.6115 9.36533 24.6115 8.384V7.36C24.6115 6.37867 24.3768 5.632 23.9075 5.12C23.4382 4.608 22.7982 4.352 21.9875 4.352C21.1768 4.352 20.5368 4.608 20.0675 5.12C19.5982 5.632 19.3635 6.37867 19.3635 7.36V8.384C19.3635 9.36533 19.5982 10.112 20.0675 10.624C20.5368 11.136 21.1768 11.392 21.9875 11.392ZM27.7733 12V3.744H28.6213V4.704H28.6693C28.7973 4.384 28.9839 4.112 29.2293 3.888C29.4853 3.664 29.8426 3.552 30.3013 3.552C30.7706 3.552 31.1333 3.66933 31.3893 3.904C31.6453 4.128 31.8053 4.44267 31.8693 4.848H31.9013C32.0506 4.47467 32.2639 4.16533 32.5413 3.92C32.8186 3.67467 33.2026 3.552 33.6933 3.552C34.3333 3.552 34.7759 3.76533 35.0213 4.192C35.2773 4.608 35.4053 5.216 35.4053 6.016V12H34.5573V6.16C34.5573 5.488 34.4613 5.01333 34.2693 4.736C34.0879 4.45867 33.7946 4.32 33.3893 4.32C33.0053 4.32 32.6799 4.45333 32.4133 4.72C32.1466 4.976 32.0133 5.37067 32.0133 5.904V12H31.1653V6.16C31.1653 5.488 31.0693 5.01333 30.8773 4.736C30.6959 4.45867 30.4026 4.32 29.9973 4.32C29.6133 4.32 29.2879 4.45333 29.0213 4.72C28.7546 4.976 28.6213 5.37067 28.6213 5.904V12H27.7733ZM41.303 12.192C40.151 12.192 39.2443 11.8187 38.583 11.072C37.9323 10.3147 37.607 9.25333 37.607 7.888C37.607 7.20533 37.6923 6.59733 37.863 6.064C38.0337 5.52 38.2737 5.06667 38.583 4.704C38.903 4.33067 39.287 4.048 39.735 3.856C40.183 3.65333 40.679 3.552 41.223 3.552C41.7777 3.552 42.2737 3.65333 42.711 3.856C43.1483 4.048 43.5163 4.32533 43.815 4.688C44.1243 5.05067 44.359 5.48267 44.519 5.984C44.679 6.48533 44.759 7.04 44.759 7.648V8.048H38.567V8.448C38.567 9.33333 38.807 10.048 39.287 10.592C39.767 11.1253 40.439 11.392 41.303 11.392C41.911 11.392 42.4283 11.2533 42.855 10.976C43.2923 10.6987 43.6283 10.288 43.863 9.744L44.551 10.176C44.3057 10.784 43.9057 11.2747 43.351 11.648C42.7963 12.0107 42.1137 12.192 41.303 12.192ZM41.223 4.32C40.8177 4.32 40.4497 4.39467 40.119 4.544C39.799 4.68267 39.5217 4.88 39.287 5.136C39.063 5.392 38.887 5.70133 38.759 6.064C38.631 6.42667 38.567 6.82667 38.567 7.264V7.36H43.783V7.232C43.783 6.336 43.5537 5.62667 43.095 5.104C42.647 4.58133 42.023 4.32 41.223 4.32ZM47.2168 11.216H49.8088V4.528H47.2168V3.744H50.7208V5.632H50.7848C50.9661 5.056 51.2754 4.59733 51.7128 4.256C52.1608 3.91467 52.7474 3.744 53.4728 3.744H54.8968V4.64H53.2008C52.4541 4.64 51.8514 4.864 51.3928 5.312C50.9448 5.74933 50.7208 6.34133 50.7208 7.088V11.216H54.0808V12H47.2168V11.216ZM63.2105 3.744H64.1225L59.8185 14.24C59.6798 14.5707 59.5038 14.8107 59.2905 14.96C59.0878 15.12 58.7678 15.2 58.3305 15.2H56.9545V14.416H58.8265L59.9145 11.776L56.6025 3.744H57.5465L60.3465 10.672H60.4105L63.2105 3.744Z" fill="#4E4E4E"/>
<path d="M67.2363 12V0.832H68.1963V11.168H73.6683V12H67.2363ZM82.414 12C82.0407 12 81.774 11.9093 81.614 11.728C81.454 11.5467 81.3633 11.3013 81.342 10.992V10.704H81.262C81.0807 11.1413 80.782 11.4987 80.366 11.776C79.95 12.0533 79.3847 12.192 78.67 12.192C77.806 12.192 77.1233 11.984 76.622 11.568C76.1313 11.1413 75.886 10.544 75.886 9.776C75.886 9.41333 75.9447 9.088 76.062 8.8C76.19 8.50133 76.3873 8.25067 76.654 8.048C76.9313 7.84533 77.2833 7.69067 77.71 7.584C78.1367 7.46667 78.6593 7.408 79.278 7.408H81.294V6.4C81.294 5.70667 81.102 5.18933 80.718 4.848C80.3447 4.50667 79.822 4.336 79.15 4.336C78.0193 4.336 77.23 4.78933 76.782 5.696L76.158 5.248C76.3713 4.768 76.7287 4.368 77.23 4.048C77.742 3.71733 78.398 3.552 79.198 3.552C80.1367 3.552 80.8727 3.79733 81.406 4.288C81.9393 4.768 82.206 5.44 82.206 6.304V11.2H83.438V12H82.414ZM78.814 11.424C79.166 11.424 79.4913 11.3813 79.79 11.296C80.0887 11.2107 80.35 11.0933 80.574 10.944C80.798 10.784 80.974 10.592 81.102 10.368C81.23 10.144 81.294 9.89333 81.294 9.616V8.096H79.278C78.414 8.096 77.79 8.22933 77.406 8.496C77.0327 8.752 76.846 9.104 76.846 9.552V9.968C76.846 10.448 77.022 10.8107 77.374 11.056C77.7367 11.3013 78.2167 11.424 78.814 11.424ZM86.0558 0.16H86.9678V5.056H87.0158C87.2504 4.608 87.5758 4.24533 87.9918 3.968C88.4184 3.69067 88.9464 3.552 89.5758 3.552C90.6104 3.552 91.4158 3.92533 91.9918 4.672C92.5678 5.408 92.8558 6.47467 92.8558 7.872C92.8558 9.26933 92.5678 10.3413 91.9918 11.088C91.4158 11.824 90.6104 12.192 89.5758 12.192C88.9464 12.192 88.4184 12.0533 87.9918 11.776C87.5758 11.4987 87.2504 11.136 87.0158 10.688H86.9678V12H86.0558V0.16ZM89.2718 11.376C90.1038 11.376 90.7438 11.1147 91.1918 10.592C91.6504 10.0693 91.8798 9.35467 91.8798 8.448V7.296C91.8798 6.38933 91.6504 5.67467 91.1918 5.152C90.7438 4.62933 90.1038 4.368 89.2718 4.368C88.9624 4.368 88.6691 4.41067 88.3918 4.496C88.1144 4.58133 87.8691 4.704 87.6558 4.864C87.4424 5.024 87.2718 5.22133 87.1438 5.456C87.0264 5.69067 86.9678 5.952 86.9678 6.24V9.504C86.9678 9.792 87.0264 10.0533 87.1438 10.288C87.2718 10.5227 87.4424 10.72 87.6558 10.88C87.8691 11.04 88.1144 11.1627 88.3918 11.248C88.6691 11.3333 88.9624 11.376 89.2718 11.376Z" fill="#6F6F6F"/>
</svg>
