<svg width="160" viewBox="0 0 540 112" fill="none" xmlns="http://www.w3.org/2000/svg">
<path d="M20.008 70.512H59.816V86H0.424V0.879997H20.008V70.512ZM100.192 88.048C74.72 88.048 64.736 71.792 64.736 53.872C64.736 36.208 74.72 19.952 100.192 19.952C125.792 19.952 135.648 36.336 135.648 53.872C135.648 71.664 125.792 88.048 100.192 88.048ZM83.808 54C83.808 68.208 88.672 73.2 100.192 73.2C111.84 73.2 116.704 68.208 116.704 54C116.704 39.792 111.84 34.8 100.192 34.8C88.672 34.8 83.808 39.792 83.808 54ZM179.067 88.048C153.595 88.048 143.611 71.792 143.611 53.872C143.611 36.208 153.595 19.952 179.067 19.952C204.667 19.952 214.523 36.336 214.523 53.872C214.523 71.664 204.667 88.048 179.067 88.048ZM162.683 54C162.683 68.208 167.547 73.2 179.067 73.2C190.715 73.2 195.579 68.208 195.579 54C195.579 39.792 190.715 34.8 179.067 34.8C167.547 34.8 162.683 39.792 162.683 54ZM310.163 19.952C326.419 19.952 333.715 29.936 333.715 46.704V86H314.771V49.392C314.771 39.792 310.931 35.312 303.251 35.312C293.651 35.312 288.787 41.712 288.787 56.944V86H270.227V49.392C270.227 39.792 266.387 35.312 258.707 35.312C249.107 35.312 244.243 41.712 244.243 56.944V86H225.299V22H244.243V33.648C248.083 25.456 254.995 19.952 266.131 19.952C277.523 19.952 284.435 25.328 287.251 34.8C291.091 25.968 298.131 19.952 310.163 19.952ZM378.427 74.992C386.747 74.992 391.099 71.408 392.891 66.672H411.067C409.275 76.912 401.083 88.048 378.043 88.048C353.083 88.048 343.611 71.92 343.611 53.872C343.611 35.312 354.363 19.952 378.043 19.952C402.235 19.952 411.195 35.696 411.195 53.744C411.195 55.664 411.195 57.456 410.939 58.864H362.171C363.323 71.024 369.339 74.992 378.427 74.992ZM378.299 32.752C369.211 32.752 363.835 36.464 362.299 47.344H393.147C392.507 37.616 387.771 32.752 378.299 32.752ZM459.69 20.976H463.914V39.408H457.642C444.97 39.408 440.618 46.32 440.618 60.784V86H421.674V22H440.106V35.696C443.178 26.608 448.938 20.976 459.69 20.976ZM521.79 22H539.838L517.438 87.92C512.19 103.536 506.686 111.6 488.254 111.6H472.254V96.624H496.958L501.182 84.848H490.302L468.414 22H487.742L501.822 61.936L505.15 72.432L508.094 61.936L521.79 22Z" fill="#42B49F"/>
</svg>
