<svg width="135" height="140" viewBox="0 0 135 140" fill="none" xmlns="http://www.w3.org/2000/svg">
<g clip-path="url(#clip0_33_31)">
<path d="M77.7688 0.826452C74.6152 0.311613 71.4203 1.26452 68.9991 3.42097C67.7624 4.52065 66.8018 5.88 66.1541 7.38613C62.9853 2.91742 57.9017 0 52.1617 0C45.7371 0 40.1298 3.64677 37.1196 9.04581C37.0631 9.04355 37.0044 9.03226 36.9479 9.03226C27.5023 9.03226 19.8084 16.9016 19.5824 26.6587C16.5679 28.4697 14.3206 31.4932 13.449 35.0858C6.76798 37.7119 2.17341 44.4319 2.17341 51.9355C2.17341 54.7242 2.80152 57.4723 4.00341 59.9719C1.41054 63.5035 0 67.8074 0 72.2581C0 77.4629 1.93868 82.4442 5.34875 86.2016C4.7076 88.2113 4.34681 90.3519 4.34681 92.5806C4.34681 102.615 11.4321 111.133 20.9125 112.648C22.7077 116.785 26.1678 119.987 30.5081 121.294C31.3036 131.745 39.7277 140 49.9883 140C56.4738 140 62.2159 136.69 65.7759 131.625C66.3954 133.524 67.4973 135.24 68.9991 136.577C70.9921 138.352 73.5089 139.307 76.0953 139.307C76.6517 139.307 77.2124 139.262 77.771 139.171C110.787 133.86 134.751 104.767 134.751 70C134.751 35.2326 110.787 6.13968 77.7688 0.826452ZM65.2022 119.677C65.2022 128.391 58.3755 135.484 49.9883 135.484C41.6011 135.484 34.7745 128.391 34.7745 119.677C34.7745 110.964 41.6011 103.871 49.9883 103.871V99.3548C40.2232 99.3548 32.1316 106.834 30.682 116.564C26.6546 114.872 23.9075 110.819 23.9075 106.129C23.9075 99.9035 28.7824 94.8387 34.7745 94.8387V90.3226C26.3873 90.3226 19.5606 97.4152 19.5606 106.129C19.5606 106.675 19.5932 107.213 19.6454 107.746C13.2643 105.815 8.69362 99.689 8.69362 92.5806C8.69362 83.8668 15.5203 76.7742 23.9075 76.7742V72.2581C16.9613 72.2581 10.8649 76.0494 7.39392 81.7352C5.43569 79.021 4.34681 75.7016 4.34681 72.2581C4.34681 68.3787 5.73127 64.6394 8.24155 61.7265L9.32391 60.4687L8.46976 59.0326C7.19614 56.8852 6.52022 54.4306 6.52022 51.9355C6.52022 47.0152 9.1609 42.5442 13.1665 40.1755C14.0141 46.8029 19.4737 51.9355 26.0809 51.9355V47.4194C21.2863 47.4194 17.3872 43.3684 17.3872 38.3871C17.3872 33.4058 21.2863 29.3548 26.0809 29.3548C30.8754 29.3548 34.7745 33.4058 34.7745 38.3871H39.1213C39.1213 30.9152 33.2727 24.8387 26.0809 24.8387C25.3984 24.8387 24.7334 24.911 24.077 25.0148C24.9637 19.0829 29.5561 14.4177 35.3178 13.6658C34.9766 15.0771 34.7745 16.5448 34.7745 18.0645C34.7745 28.0248 42.5748 36.129 52.1617 36.129V31.6129C44.9699 31.6129 39.1213 25.5365 39.1213 18.0645C39.1213 10.5926 44.9699 4.51613 52.1617 4.51613C59.3535 4.51613 65.2022 10.5926 65.2022 18.0645V119.677ZM77.1037 134.709C75.2129 135.023 73.2829 134.445 71.8289 133.149C70.3792 131.86 69.549 129.983 69.549 128.005V11.9948C69.549 10.0145 70.3792 8.14032 71.8289 6.85097C73.0264 5.7829 74.5413 5.2071 76.0974 5.2071C76.4321 5.2071 76.769 5.23419 77.1037 5.28839C107.49 10.1794 130.404 37.9987 130.404 70C130.404 102.001 107.49 129.821 77.1037 134.709Z" fill="#42B49F"/>
<path d="M89.1096 54.1935V38.3871H84.7628V54.1935C84.7628 55.44 83.7891 56.4516 82.5894 56.4516H73.8958V60.9677H82.5894C86.1842 60.9677 89.1096 57.9284 89.1096 54.1935Z" fill="#42B49F"/>
<path d="M86.9362 33.871C90.531 33.871 93.4564 30.8316 93.4564 27.0968C93.4564 23.3619 90.531 20.3226 86.9362 20.3226C83.3414 20.3226 80.416 23.3619 80.416 27.0968C80.416 30.8316 83.3414 33.871 86.9362 33.871ZM86.9362 24.8387C88.136 24.8387 89.1096 25.8503 89.1096 27.0968C89.1096 28.3432 88.136 29.3548 86.9362 29.3548C85.7365 29.3548 84.7628 28.3432 84.7628 27.0968C84.7628 25.8503 85.7365 24.8387 86.9362 24.8387Z" fill="#42B49F"/>
<path d="M84.7628 85.8064V101.613H89.1096V85.8064C89.1096 82.0716 86.1842 79.0322 82.5894 79.0322H73.8958V83.5484H82.5894C83.7891 83.5484 84.7628 84.56 84.7628 85.8064Z" fill="#42B49F"/>
<path d="M86.9362 106.129C83.3414 106.129 80.416 109.168 80.416 112.903C80.416 116.638 83.3414 119.677 86.9362 119.677C90.531 119.677 93.4564 116.638 93.4564 112.903C93.4564 109.168 90.531 106.129 86.9362 106.129ZM86.9362 115.161C85.7365 115.161 84.7628 114.15 84.7628 112.903C84.7628 111.657 85.7365 110.645 86.9362 110.645C88.136 110.645 89.1096 111.657 89.1096 112.903C89.1096 114.15 88.136 115.161 86.9362 115.161Z" fill="#42B49F"/>
<path d="M102.15 60.9677C102.15 64.7026 99.2246 67.7419 95.6298 67.7419H73.8958V72.2581H95.6298C101.622 72.2581 106.497 67.1932 106.497 60.9677V54.1935H102.15V60.9677Z" fill="#42B49F"/>
<path d="M104.323 36.129C100.729 36.129 97.8032 39.1684 97.8032 42.9032C97.8032 46.6381 100.729 49.6774 104.323 49.6774C107.918 49.6774 110.844 46.6381 110.844 42.9032C110.844 39.1684 107.918 36.129 104.323 36.129ZM104.323 45.1613C103.124 45.1613 102.15 44.1497 102.15 42.9032C102.15 41.6568 103.124 40.6452 104.323 40.6452C105.523 40.6452 106.497 41.6568 106.497 42.9032C106.497 44.1497 105.523 45.1613 104.323 45.1613Z" fill="#42B49F"/>
<path d="M106.497 79.0322H102.15V101.613H106.497V79.0322Z" fill="#42B49F"/>
<path d="M117.364 47.4194H113.017V83.5484H117.364V47.4194Z" fill="#42B49F"/>
<path d="M117.364 88.0645H113.017V92.5806H117.364V88.0645Z" fill="#42B49F"/>
<path d="M56.5084 15.8065H52.1616V20.3226H56.5084V15.8065Z" fill="#42B49F"/>
<path d="M45.6415 67.7419H41.2947V72.2581H45.6415V67.7419Z" fill="#42B49F"/>
<path d="M58.682 117.419H54.3352V121.936H58.682V117.419Z" fill="#42B49F"/>
<path d="M21.734 83.5484H17.3872V88.0645H21.734V83.5484Z" fill="#42B49F"/>
<path d="M60.8554 51.9355H56.5085V56.4516H60.8554V51.9355Z" fill="#42B49F"/>
<path d="M19.5607 56.4516H15.2139V60.9677H19.5607V56.4516Z" fill="#42B49F"/>
</g>
<defs>
<clipPath id="clip0_33_31">
<rect width="134.751" height="140" fill="white"/>
</clipPath>
</defs>
</svg>
