<svg width="99" height="100" viewBox="0 0 99 100" fill="none" xmlns="http://www.w3.org/2000/svg">
<path d="M92.1644 40.9266C93.0088 38.3888 93.4396 35.7317 93.4401 33.0571C93.4397 28.6314 92.2609 24.2856 90.0246 20.4664C85.5311 12.6448 77.1955 7.81573 68.1743 7.81573C66.397 7.81576 64.6247 8.00346 62.8869 8.37572C60.5494 5.74218 57.6803 3.63404 54.4686 2.19031C51.2569 0.74659 47.7756 7.69704e-05 44.2544 0H44.0962L44.0369 0.000348928C33.1105 0.000348928 23.4207 7.05082 20.0618 17.4448C16.5849 18.1569 13.3003 19.6036 10.4278 21.6879C7.55524 23.7722 5.16112 26.4461 3.40566 29.5306C1.17622 33.3728 0.00136425 37.7357 0 42.1778C0.000852013 48.4207 2.31823 54.4412 6.50339 59.0734C5.65858 61.6111 5.22773 64.2683 5.22736 66.9429C5.22776 71.3686 6.40662 75.7144 8.6428 79.5336C11.302 84.1636 15.363 87.8293 20.2401 90.0023C25.1172 92.1752 30.5585 92.7431 35.7791 91.6239C38.1169 94.2575 40.9863 96.3656 44.1982 97.8094C47.4101 99.2532 50.8916 99.9998 54.413 100H54.5712L54.6354 99.9997C65.5678 99.9997 75.2544 92.9488 78.6133 82.5454C82.0902 81.8331 85.3748 80.3863 88.2473 78.3019C91.1199 76.2176 93.5141 73.5437 95.2698 70.4593C97.4968 66.6205 98.6694 62.2612 98.6688 57.8232C98.668 51.5805 96.3506 45.5601 92.1654 40.928L92.1644 40.9266ZM54.5775 93.4624H54.5516C50.1772 93.4609 45.9415 91.9263 42.5814 89.1253C42.7809 89.0178 42.9781 88.9061 43.1728 88.7901L63.0838 77.2891C63.5807 77.0062 63.9938 76.5969 64.2813 76.1027C64.5687 75.6084 64.7203 75.0469 64.7205 74.4752V46.3854L73.1363 51.2448C73.1805 51.2668 73.2186 51.2994 73.2471 51.3396C73.2757 51.3799 73.2939 51.4266 73.3001 51.4756V74.722C73.2885 85.0573 64.9135 93.4414 54.5775 93.4624ZM14.3139 76.2658C12.6692 73.4221 11.8027 70.1952 11.8016 66.9101C11.8016 65.8387 11.8952 64.7644 12.0774 63.7087C12.2255 63.7974 12.4838 63.9552 12.6692 64.0617L32.5802 75.5627C33.0766 75.8525 33.6411 76.0052 34.2159 76.005C34.7907 76.0049 35.3551 75.852 35.8514 75.562L60.1606 61.5257V71.2448L60.1609 71.2615C60.161 71.3083 60.1501 71.3545 60.1292 71.3964C60.1083 71.4382 60.0779 71.4747 60.0405 71.5028L39.9124 83.1243C37.0643 84.7634 33.8361 85.6265 30.55 85.6275C27.2605 85.627 24.0289 84.7617 21.1793 83.1185C18.3296 81.4752 15.962 79.1116 14.3139 76.2648V76.2658ZM9.07571 32.7984C11.2626 28.9999 14.7156 26.0916 18.8305 24.5822C18.8305 24.7536 18.8207 25.0573 18.8207 25.2682V48.2706L18.8203 48.2895C18.8204 48.8606 18.9717 49.4216 19.2587 49.9154C19.5457 50.4092 19.9583 50.8182 20.4546 51.1009L44.7637 65.1352L36.3482 69.9946C36.3067 70.022 36.2591 70.0386 36.2095 70.0431C36.16 70.0477 36.1102 70.0398 36.0644 70.0204L15.9342 58.3892C13.0884 56.7406 10.726 54.3731 9.08356 51.5239C7.44112 48.6747 6.57638 45.4438 6.57601 42.1551C6.57727 38.8715 7.43953 35.6457 9.07675 32.7994L9.07571 32.7984ZM78.2205 48.8889L53.9114 34.8529L62.3272 29.9953C62.3687 29.9679 62.4164 29.9512 62.4659 29.9467C62.5154 29.9422 62.5653 29.95 62.6111 29.9695L82.7409 41.5909C85.589 43.2369 87.9539 45.6031 89.5984 48.452C91.2428 51.301 92.1088 54.5324 92.1096 57.8218C92.1096 65.6732 87.2104 72.6985 79.844 75.4101V51.7199C79.845 51.7112 79.845 51.7021 79.845 51.6934C79.8448 51.1244 79.6946 50.5654 79.4094 50.073C79.1241 49.5806 78.7141 49.1722 78.2205 48.8889ZM86.597 36.2819C86.4013 36.162 86.2041 36.0444 86.0056 35.9293L66.0946 24.4279C65.5981 24.1386 65.0339 23.9861 64.4593 23.9859C63.8847 23.9861 63.3205 24.1386 62.824 24.4279L38.5145 38.4642V28.7451L38.5142 28.7283C38.5142 28.6334 38.5592 28.544 38.6349 28.4871L58.7631 16.8754C61.6102 15.234 64.8387 14.3699 68.1251 14.3698C78.4744 14.3698 86.8672 22.7626 86.8672 33.1119C86.8667 34.1739 86.7763 35.234 86.597 36.2808V36.2819ZM33.9389 53.6045L25.5213 48.7451C25.4771 48.7231 25.4391 48.6905 25.4105 48.6502C25.382 48.61 25.3638 48.5633 25.3576 48.5143V25.2675C25.3621 14.9238 33.755 6.53796 44.0997 6.53796C48.481 6.53887 52.7238 8.07371 56.0916 10.8761C55.9401 10.9589 55.6758 11.1048 55.5002 11.2113L35.5892 22.7123C35.0924 22.995 34.6793 23.4041 34.3919 23.8982C34.1045 24.3922 33.953 24.9536 33.9529 25.5252V25.5437L33.9389 53.6045ZM38.5107 43.7478L49.3376 37.4944L60.1644 43.7436V56.2463L49.3376 62.4959L38.5107 56.2463V43.7478Z" fill="#42B49F"/>
</svg>
