<svg width="30" height="30" viewBox="0 0 30 30" fill="none" xmlns="http://www.w3.org/2000/svg">
<path d="M3.75 26.2504H8.75L25 10.0004C25.663 9.33734 26.0355 8.43806 26.0355 7.50038C26.0355 6.5627 25.663 5.66342 25 5.00038C24.337 4.33734 23.4377 3.96484 22.5 3.96484C21.5623 3.96484 20.663 4.33734 20 5.00038L3.75 21.2504V26.2504Z" stroke="white" stroke-linecap="round" stroke-linejoin="round"/>
<path d="M18.125 6.875L23.125 11.875" stroke="white" stroke-linecap="round" stroke-linejoin="round"/>
<path d="M15 10L8.75 3.75L3.75 8.75L10 15" stroke="white" stroke-linecap="round" stroke-linejoin="round"/>
<path d="M8.75 10L6.875 11.875" stroke="white" stroke-linecap="round" stroke-linejoin="round"/>
<path d="M20 15L26.25 21.25L21.25 26.25L15 20" stroke="white" stroke-linecap="round" stroke-linejoin="round"/>
<path d="M20 21.25L18.125 23.125" stroke="white" stroke-linecap="round" stroke-linejoin="round"/>
</svg>
