<svg width="140" height="140" viewBox="0 0 140 140" fill="none" xmlns="http://www.w3.org/2000/svg">
<path d="M135.625 105C135.625 112 125.125 118.563 109.375 122.5V80.9375V52.5C125.125 48.5625 135.625 42 135.625 35C135.625 22.75 106.313 13.125 70 13.125C33.6875 13.125 4.375 22.75 4.375 35C4.375 42 14.875 48.5625 30.625 52.5V84.875L30.625 122.5C14.875 118.563 4.375 112 4.375 105" stroke="#42B49F" stroke-width="4" stroke-miterlimit="10" stroke-linecap="round" stroke-linejoin="round"/>
<path d="M30.625 87.5C41.5625 84.875 55.125 83.125 70 83.125C84.875 83.125 98.4375 84.875 109.375 87.5" stroke="#42B49F" stroke-width="2" stroke-miterlimit="10" stroke-linecap="round" stroke-linejoin="round"/>
<path d="M4.375 105L4.375 35" stroke="#42B49F" stroke-width="4" stroke-miterlimit="10" stroke-linecap="round" stroke-linejoin="round"/>
<path d="M135.625 105V35" stroke="#42B49F" stroke-width="4" stroke-miterlimit="10" stroke-linecap="round" stroke-linejoin="round"/>
<path d="M30.625 70L61.25 52.5L78.75 70L96.25 61.25L109.375 74.375" stroke="#42B49F" stroke-width="4" stroke-miterlimit="10" stroke-linecap="round" stroke-linejoin="round"/>
<path d="M50.3125 43.75C53.9369 43.75 56.875 40.8119 56.875 37.1875C56.875 33.5631 53.9369 30.625 50.3125 30.625C46.6881 30.625 43.75 33.5631 43.75 37.1875C43.75 40.8119 46.6881 43.75 50.3125 43.75Z" stroke="#42B49F" stroke-width="4" stroke-miterlimit="10" stroke-linecap="round" stroke-linejoin="round"/>
</svg>
